<svg width="201" height="305" viewBox="0 0 201 305" fill="none" xmlns="http://www.w3.org/2000/svg">
<path fill-rule="evenodd" clip-rule="evenodd" d="M121.888 0L100.444 61.5432H100.408C97.138 51.9473 93.859 42.3514 90.5799 32.7555L90.5794 32.754C87.3005 23.1584 84.0215 13.5627 80.7515 3.96707C70.9946 7.21936 61.2378 10.4716 51.4452 13.7239C59.6553 37.3371 67.8566 60.9502 76.0578 84.5633L76.0878 84.6497C84.2988 108.291 92.5098 131.932 100.73 155.574L150.693 9.64964C141.08 6.43309 131.466 3.21655 121.888 0ZM124.103 4.5389C125.783 5.11073 127.472 5.67362 129.16 6.23652L129.164 6.23764C130.851 6.80017 132.539 7.36269 134.218 7.93414C135.54 8.36302 136.827 8.79189 138.149 9.2565C138.017 9.83349 137.794 10.4133 137.566 11.0058C136.988 12.5051 136.38 14.0852 137.148 15.904C137.363 16.3686 137.613 16.869 138.006 17.1549C138.435 17.5123 138.935 17.7982 139.543 18.0127C139.656 18.0411 139.793 18.062 139.936 18.084C140.334 18.145 140.788 18.2146 140.972 18.4773C141.004 18.5914 141.036 18.7067 141.068 18.8228L141.068 18.8235C141.216 19.361 141.368 19.9141 141.544 20.4429C141.746 20.9737 142.02 21.2185 142.327 21.4933C142.455 21.6071 142.588 21.726 142.724 21.8725C141.545 25.23 140.402 28.5874 139.259 31.9449L139.257 31.951C138.435 31.5222 138.149 30.1998 138.399 29.0204C138.493 28.646 138.612 28.2485 138.737 27.8342L138.738 27.8329C139.232 26.1906 139.806 24.2849 139.15 22.5158C138.757 21.5151 138.113 20.5502 137.148 20.1213C136.945 20.0377 136.655 19.9741 136.345 19.9064C135.729 19.7715 135.039 19.6205 134.825 19.2635C134.504 18.656 134.682 17.6195 134.825 16.9405C135.04 15.8326 135.075 14.3315 134.789 13.2593C133.789 9.6139 130.787 7.39805 127.284 6.29013C126.715 6.10668 126.119 5.98914 125.513 5.86985C124.938 5.75675 124.356 5.64207 123.782 5.46813V5.43239C123.835 5.28943 123.889 5.13754 123.943 4.98564C123.996 4.83375 124.05 4.68186 124.103 4.5389ZM122.924 7.82693C123.782 7.86267 124.639 8.11284 125.354 8.32728C128.821 9.2565 131.787 10.7576 132.538 14.403C132.673 15.1821 132.488 16.0575 132.346 16.7249L132.323 16.8333C132.109 17.834 132.145 19.1921 132.466 20.0498C132.824 20.8361 133.467 21.4794 134.253 21.8368C134.649 22.0093 135.008 22.0983 135.326 22.1773C136.129 22.3766 136.678 22.5129 136.934 23.7667C137.144 24.6405 136.84 25.5484 136.626 26.1897L136.612 26.2327C136.148 27.7695 135.468 30.0568 136.183 31.8438C136.505 32.6301 136.97 33.3806 137.613 33.8452C137.756 33.9167 137.899 33.9971 138.042 34.0775C138.185 34.1579 138.328 34.2383 138.471 34.3098C137.619 36.7306 136.788 39.1513 135.962 41.5574L135.961 41.5602C135.677 42.3857 135.394 43.2095 135.111 44.0309C134.861 43.7629 134.62 43.4859 134.378 43.2089C134.137 42.9319 133.896 42.655 133.646 42.3869L131.287 39.7065C130.108 38.2412 128.785 36.7401 127.177 35.7394C125.104 34.5243 122.459 34.6672 120.672 36.0611C120.301 36.3309 120.058 36.728 119.791 37.1623L119.743 37.2405C118.398 39.4978 119.729 41.3188 120.999 43.056C121.72 44.0417 122.421 45.0004 122.602 45.9966C122.762 46.8923 122.378 47.7306 122.091 48.358C122.057 48.4316 122.025 48.5023 121.995 48.5698C121.815 48.9685 121.625 49.356 121.434 49.744L121.434 49.7452C120.94 50.7483 120.445 51.7549 120.136 52.9658C119.707 54.7528 120.244 56.7542 120.923 57.8978C122.71 60.9714 124.925 62.2223 128.428 63.5804C128.267 64.045 128.106 64.5007 127.945 64.9564C127.785 65.412 127.624 65.8677 127.463 66.3323C126.141 66.4753 125.033 66.2608 124.175 65.7605C122.3 64.6283 121.125 62.9007 119.923 61.1325L119.886 61.0786C119.803 60.9503 119.719 60.8222 119.634 60.694C118.711 59.2869 117.777 57.8647 117.384 55.9322C117.218 55.0074 117.453 54.2837 117.685 53.5727C117.901 52.9098 118.113 52.258 117.992 51.4647C117.979 51.4019 117.967 51.3401 117.955 51.2793C117.866 50.8212 117.788 50.4221 117.599 50.1066C117.027 49.1774 115.562 48.0695 114.132 48.963C113.56 49.3204 113.167 49.9637 112.953 50.6785C112.89 50.8662 112.854 51.0762 112.818 51.2847C112.751 51.6715 112.685 52.0546 112.452 52.2867C112.108 52.662 111.573 52.8457 111.037 53.0294C110.961 53.0557 110.884 53.0819 110.808 53.1087C109.915 53.4661 109.057 53.895 108.521 54.5741C107.52 55.8964 107.663 57.7191 108.557 59.0415C109.093 59.8635 109.772 60.5425 110.63 61.0786C111.088 61.3557 111.56 61.5894 112.022 61.8185C113.289 62.4465 114.488 63.0408 115.169 64.4024C115.576 65.2166 115.797 66.193 116.018 67.1667C116.185 67.9027 116.352 68.6371 116.598 69.2987C117.742 72.1578 119.6 74.0878 122.066 75.5888C122.117 75.6205 122.168 75.6527 122.22 75.6853C122.752 76.0203 123.342 76.3909 123.96 76.5538C123.603 77.6617 123.246 78.7696 122.852 79.8776H122.781L122.678 79.8472C120.297 79.1473 118.438 78.6008 117.17 76.804C116.384 75.7469 115.824 74.4433 115.272 73.1579L115.272 73.1572C115.096 72.7479 114.921 72.3404 114.74 71.9434C114.025 70.2636 112.845 68.7626 111.38 67.7976C110.272 67.0829 108.271 66.4395 106.627 67.0829C105.555 67.5117 104.697 68.2265 104.089 69.0485C103.625 69.6918 103.16 70.4066 102.91 71.2644C101.842 74.6414 103.385 78.0417 104.639 80.8064C104.938 81.4651 105.22 82.0876 105.447 82.6652L105.478 82.7477L105.499 82.8037C105.926 83.9368 106.508 85.4839 106.234 87.0969C105.876 88.9911 104.947 90.3492 103.553 91.2069C103.008 91.5416 102.433 91.8148 101.867 92.0835C100.317 92.8191 98.8397 93.5202 98.2638 95.3527C97.692 97.1397 98.6212 98.6765 99.4075 99.6414C100.037 100.424 100.917 100.972 101.798 101.52C102.768 102.123 103.739 102.727 104.375 103.644C105.042 104.597 105.399 105.805 105.771 107.066C105.818 107.223 105.864 107.381 105.912 107.54C106.591 109.72 107.306 111.864 108.914 113.151L108.936 113.169C109.537 113.664 110.176 114.19 111.058 114.402C110.665 115.545 110.272 116.68 109.879 117.815C109.486 118.95 109.093 120.084 108.7 121.228V121.157C108.414 120.478 108.164 119.798 107.913 119.119C107.127 117.189 106.234 115.26 104.625 114.116C103.911 113.616 103.017 113.33 102.016 113.115C101.73 113.047 101.444 113 101.164 112.953C100.709 112.878 100.27 112.805 99.8721 112.651C99.0858 112.293 98.4425 111.614 98.0136 110.935C97.1952 109.658 96.9465 108.112 96.6633 106.35C96.6373 106.189 96.6111 106.025 96.584 105.86C96.4544 105.098 96.4056 104.337 96.3576 103.588C96.2998 102.686 96.2433 101.804 96.0479 100.964C95.3689 98.0332 94.1537 95.8173 91.6163 94.7451C90.4369 94.2091 88.6142 93.8159 87.0416 94.2805C86.1124 94.5307 85.2904 94.8881 84.5756 95.3885L83.8251 96.0318C83.7893 95.9067 83.7447 95.7816 83.7 95.6565C83.6553 95.5314 83.6106 95.4063 83.5749 95.2812V95.2455C85.5406 94.9596 86.6485 93.387 87.3633 91.8145C87.405 91.7214 87.447 91.626 87.4897 91.5291C87.9221 90.5474 88.4213 89.414 89.3647 88.9911C90.4726 88.5265 91.9737 89.0268 92.8314 89.3485C93.1655 89.4822 93.5238 89.6389 93.8999 89.8035C96.1388 90.7833 99.0274 92.0475 101.445 90.4564C102.124 89.9918 102.66 89.3128 103.089 88.598C104.447 86.3106 103.66 83.1298 102.553 81.3071C101.867 80.2238 101.018 79.332 100.173 78.4455C99.6527 77.8989 99.134 77.3544 98.6569 76.7682C98.4377 76.4919 98.2083 76.2256 97.979 75.9594C97.3482 75.2273 96.7175 74.4952 96.2981 73.5517C96.0479 73.0156 95.905 72.4438 95.7978 71.8362C95.7978 71.564 95.7886 71.3009 95.7795 71.0425L95.7794 71.0412C95.7707 70.7911 95.762 70.5453 95.762 70.2994C95.762 69.1915 95.762 68.1193 95.5119 67.2616C94.6899 64.4739 92.7957 62.7584 90.7585 61.1859C90.6917 61.1339 90.6254 61.0821 90.5594 61.0306C89.3546 60.0902 88.2619 59.2374 86.3983 58.8985C85.5048 58.7556 84.7543 59.1487 84.2897 59.4704C82.4905 60.6854 82.5856 62.4352 82.6973 64.4899C82.7565 65.5779 82.8203 66.7514 82.61 67.9763C81.9666 71.586 80.8587 74.195 79.1075 76.5895C79.0697 76.6399 79.0317 76.6911 78.9933 76.7429L78.9385 76.8169C78.5561 77.3335 78.1397 77.8961 77.6422 78.2693C77.2848 77.2328 76.9274 76.1964 76.6057 75.16C76.5803 75.1027 76.5491 75.0375 76.5156 74.9673C76.3607 74.6427 76.1538 74.2092 76.2126 73.9448C77.1776 73.7304 78.357 72.4795 78.8573 71.7647C79.4649 70.9427 79.9652 70.0492 80.2869 68.977C81.7376 64.383 79.431 59.9678 77.6471 56.553L77.6464 56.5517C77.3211 55.929 77.0132 55.3396 76.7487 54.7885C75.7837 52.7871 74.4256 49.7135 75.0332 46.5684C75.2576 45.4267 75.6393 44.1943 76.0377 42.9077C77.0985 39.4825 78.2784 35.6729 76.9274 32.1655C75.5693 28.6273 73.139 25.9468 70.4228 23.8024C70.0968 23.5496 69.7689 23.298 69.4407 23.0462C66.2432 20.5927 63.0171 18.1171 61.202 14.26C61.8096 14.0456 62.4172 13.8311 63.0605 13.6524C63.4593 13.5144 63.8582 13.3829 64.2542 13.2523C64.7808 13.0788 65.3025 12.9068 65.8124 12.7232C66.0626 12.8841 66.3128 13.0359 66.5629 13.1878C66.8131 13.3397 67.0633 13.4916 67.3135 13.6524C68.2784 14.2243 69.1719 14.8676 70.0297 15.5109C70.3448 15.8261 70.6765 16.1248 71.0023 16.4183L71.0036 16.4195C71.1576 16.5582 71.3103 16.6957 71.4592 16.8333C72.3527 17.548 73.139 18.4058 73.8538 19.2993C75.9267 21.9083 77.6422 24.6602 78.7501 28.3056C79.0365 29.2223 79.1852 30.1619 79.3434 31.1613C79.3826 31.4088 79.4223 31.6599 79.4649 31.9153C79.6078 32.7373 79.715 34.5957 79.5721 35.4535C79.5721 36.275 79.5364 37.0608 79.5007 37.8466L79.5006 37.848C79.4654 38.728 79.4302 39.5734 79.395 40.4182L79.3949 40.4204L79.3934 40.457C79.3577 41.2433 79.3577 42.0653 79.3577 42.8873C79.3219 46.1038 79.6793 48.8558 80.6443 51.1073C81.2518 52.5727 83.3247 55.2888 85.6835 53.9308C86.0052 53.7163 86.3268 53.4304 86.577 53.1445C87.22 52.2872 87.4613 51.1889 87.7225 50.0001C87.8097 49.6031 87.8992 49.1959 88.0066 48.7843C88.2416 47.6874 88.4835 46.5836 88.7263 45.476C89.0372 44.0574 89.3495 42.6325 89.6506 41.2075C89.6863 41.2433 89.6863 41.2433 89.7221 41.2433C91.4869 46.4486 93.2606 51.6539 95.0344 56.8592L95.0473 56.8973C96.8253 62.1152 98.6033 67.3331 100.372 72.551C100.408 72.5152 100.408 72.5152 100.444 72.5152C104.589 60.5078 108.771 48.5003 112.952 36.4928L112.952 36.4909L112.953 36.4899C113.918 36.347 114.847 35.9181 115.562 35.4892C116.367 35.0085 117.133 34.4613 117.904 33.9111C119.597 32.7025 121.31 31.4794 123.496 30.9146C125.284 30.4632 126.423 31.3189 127.551 32.1668C128.746 33.0644 129.929 33.9534 131.859 33.2734C132.019 33.1842 132.189 33.0951 132.358 33.006L132.359 33.0053C132.529 32.916 132.699 32.8266 132.86 32.7373C133.36 32.4156 133.789 31.951 134.11 31.4507C134.396 31.0218 134.611 30.45 134.754 29.8781C135.576 26.5901 132.574 24.1241 130.858 22.9447C130.666 22.803 130.459 22.6672 130.249 22.5294C129.558 22.0766 128.837 21.6034 128.535 20.8361C128.261 20.185 128.578 19.501 128.794 19.0363L128.821 18.9776C128.99 18.6494 129.175 18.3337 129.361 18.0166C129.803 17.2634 130.249 16.5024 130.501 15.5466C131.108 13.0449 129.286 11.1507 127.856 10.3287C127.248 9.93555 126.426 9.75685 125.604 9.57816C124.808 9.42397 123.974 9.52846 123.197 9.62593C122.893 9.66401 122.598 9.70103 122.316 9.72112V9.68538C122.531 9.07781 122.745 8.4345 122.924 7.82693ZM78.4284 8.47024C78.6005 8.55627 78.8876 9.51677 79.0498 10.0591C79.0897 10.1927 79.122 10.3009 79.1432 10.3644C79.4181 11.1585 79.6864 11.9525 79.9538 12.7437L79.9547 12.7463C80.3128 13.8061 80.6693 14.8609 81.0374 15.904C82.2168 19.3706 83.4052 22.8287 84.5935 26.2863C85.7818 29.7441 86.9702 33.2019 88.1496 36.6686C87.8279 38.0982 87.5062 39.5278 87.2203 40.9574C87.1673 41.1974 87.1143 41.4372 87.0613 41.6767L86.941 42.2208C86.4273 44.543 85.9175 46.8474 85.4333 49.1774C85.3868 49.3403 85.3437 49.5536 85.2962 49.7883C85.1249 50.6348 84.8976 51.7584 84.2539 51.7864C82.9061 50.9317 82.5562 49.2908 82.175 47.5034C82.1417 47.3476 82.1083 47.1907 82.0739 47.0331C81.9751 46.6182 81.9418 46.1488 81.9077 45.667C81.8801 45.2771 81.8519 44.8792 81.7879 44.4955V43.5663C81.7879 43.2225 81.7971 42.8878 81.8062 42.5576V42.5569V42.5559C81.815 42.2347 81.8237 41.9177 81.8237 41.6007C81.8589 40.6858 81.8941 39.8057 81.9292 38.926L81.9293 38.924L81.9309 38.8845C81.9309 38.1344 81.9666 37.42 82.0023 36.7056L82.0024 36.7044C82.1096 36.0611 82.1453 35.1318 82.0381 34.4885C82.0381 34.0954 82.0381 33.6665 82.0024 33.2376C81.9209 32.7326 81.884 32.235 81.8477 31.7448C81.8043 31.1597 81.7617 30.5851 81.645 30.0211C80.4656 24.6602 78.6429 21.4436 75.8195 17.834C75.1047 16.9405 74.3184 15.9755 73.4607 15.2965C73.0747 14.982 72.7001 14.656 72.3256 14.3301C71.7637 13.8412 71.2019 13.3522 70.6015 12.9019C70.3907 12.757 70.1799 12.6072 69.9673 12.4561L69.9667 12.4558C69.6028 12.1972 69.2337 11.9349 68.8503 11.6868C72.0668 10.6146 75.2476 9.54242 78.4284 8.47024ZM140.472 10.007C141.419 10.3287 142.357 10.6503 143.295 10.972C144.234 11.2936 145.172 11.6153 146.119 11.937C145.624 13.3561 145.143 14.7753 144.658 16.2023L144.657 16.2063L144.652 16.2224C144.333 17.1605 144.014 18.102 143.689 19.0491H143.653C143.438 17.6553 142.902 16.5473 141.759 16.047C141.549 15.9607 141.271 15.9042 140.982 15.8451C140.431 15.733 139.836 15.6119 139.579 15.2607C138.787 14.2324 139.475 12.562 140.019 11.24C140.212 10.7702 140.388 10.3444 140.472 10.007ZM124.032 11.9727C126.069 11.937 127.642 12.616 128.106 14.1171C128.336 14.939 127.871 15.7004 127.544 16.2344C127.516 16.2809 127.489 16.3257 127.463 16.3686C127.422 16.4373 127.378 16.5089 127.333 16.5835C126.671 17.6742 125.634 19.3825 126.069 21.122C126.521 22.9498 127.852 23.8331 129.191 24.7217C130.078 25.3099 130.968 25.9004 131.609 26.7688C132.288 27.698 132.788 29.1633 131.93 30.307C131.287 31.129 130.358 31.129 129.5 30.5929C129.201 30.4047 128.907 30.1952 128.608 29.982C127.261 29.0217 125.81 27.9871 123.353 28.4843C120.744 29.0204 118.957 30.2355 117.134 31.5222C116.97 31.6397 116.771 31.7917 116.551 31.9596L116.55 31.9604C115.767 32.5579 114.722 33.3562 114.025 33.5236C114.311 32.6301 114.632 31.7366 114.954 30.8431C115.776 31.0575 116.991 30.8431 117.706 30.6644C120.029 29.9854 121.53 28.5558 121.959 25.9825C122.135 25.0697 121.793 24.1913 121.543 23.5507L121.53 23.5165C121.524 23.5037 121.517 23.4902 121.51 23.4762C121.398 23.2552 121.213 22.8876 121.28 22.5516C121.352 22.3115 121.553 22.1359 121.742 21.9706C121.835 21.8899 121.924 21.8117 121.995 21.7296C122.065 21.645 122.137 21.5618 122.209 21.479C122.5 21.1415 122.788 20.8089 122.96 20.4072C123.782 18.5487 122.638 16.726 121.53 15.904C121.173 15.6539 120.78 15.4037 120.386 15.1892L121.351 12.4016C121.887 12.2944 122.459 12.1872 123.03 12.08L123.031 12.0799C123.192 12.062 123.362 12.0442 123.532 12.0263C123.701 12.0084 123.871 11.9906 124.032 11.9727ZM38.6147 14.5817L0.123413 28.9489C33.4683 120.978 66.8131 213.007 100.158 305C100.194 305 100.194 304.964 100.194 304.964L200.121 28.7702L200.114 28.7677L200.113 28.7673C187.285 24.1579 174.457 19.5485 161.63 14.9748C151.373 43.1723 141.125 71.3788 130.877 99.5852C120.628 127.793 110.38 156.002 100.122 184.201V184.165C84.6828 141.6 69.2791 99.0696 53.8754 56.504C50.0513 45.9966 46.2272 35.4535 42.4389 24.9461C41.9742 23.6774 41.5096 22.3997 41.045 21.122C40.5805 19.8445 40.1157 18.5664 39.6512 17.2979C39.6199 17.2119 39.563 17.037 39.4909 16.8155L39.4907 16.8146C39.2331 16.0231 38.7822 14.6375 38.6147 14.5817ZM58.8075 15.0463H58.879C59.2833 16.5768 60.4575 17.944 61.4592 19.1101C61.6972 19.3872 61.9254 19.653 62.1313 19.9068C62.846 20.8003 63.7753 21.5866 64.633 22.3014C65.0335 22.6218 65.4269 22.9422 65.8162 23.2594L65.818 23.2608C66.2966 23.6507 66.7693 24.0358 67.242 24.41C69.9225 26.4829 73.0675 29.0561 74.4256 32.3799C75.7338 35.6815 74.5447 39.4173 73.5788 42.452L73.5782 42.4537C73.436 42.9006 73.2986 43.3322 73.1747 43.745C72.1026 47.3547 72.4957 50.9644 73.7466 54.038C74.2575 55.2843 74.8381 56.4393 75.4169 57.5909C76.4979 59.7418 77.5731 61.881 78.1783 64.5811C78.7858 67.4045 77.249 71.0142 75.3548 71.6217C75.0083 70.6622 74.6817 69.7026 74.3601 68.7579C74.2505 68.4359 74.1415 68.1156 74.0325 67.7976C74.061 67.7581 74.0896 67.7188 74.118 67.6795C74.5534 67.0788 74.9771 66.4941 75.2119 65.689C76.2841 62.258 73.8181 59.113 72.0668 57.7549C71.7273 57.5047 71.3879 57.2635 71.0484 57.0223C70.7088 56.781 70.3692 56.5398 70.0297 56.2896C68.4929 51.9293 66.9918 47.5334 65.4908 43.1375C66.5272 42.3512 67.4922 41.279 68.2427 40.2068C68.7073 39.5278 69.1362 38.7058 69.4221 37.7765C69.9224 36.0611 69.5293 34.0239 68.8145 32.8445C67.4172 30.4724 65.2518 29.1934 62.9361 27.8257L62.9336 27.8242C62.7032 27.6881 62.4713 27.5511 62.2385 27.4121L62.1282 27.3499C61.2692 26.8654 59.6469 25.9505 59.2364 25.232C58.1642 22.1584 57.092 19.0491 56.0556 15.9755C56.9491 15.6539 57.8783 15.3322 58.8075 15.0463ZM119.564 17.548C120.029 17.7625 121.101 18.5845 120.744 19.4065C120.652 19.5893 120.503 19.7283 120.36 19.8609C120.279 19.9356 120.201 20.0082 120.136 20.0855C120.042 20.2046 119.947 20.3182 119.853 20.4303C119.412 20.9576 118.997 21.4529 118.85 22.3371C118.707 23.1694 118.96 23.7961 119.198 24.3854C119.317 24.6818 119.433 24.9688 119.493 25.2678C119.6 25.6966 119.457 26.0898 119.35 26.3399C118.885 27.698 117.635 28.4486 115.776 28.4486C116.533 26.2434 117.302 24.0383 118.069 21.8411L118.073 21.8318C118.573 20.3998 119.071 18.9711 119.564 17.548ZM36.5419 19.1921C39.4725 27.2514 42.3942 35.3107 45.316 43.3701C48.2376 51.4292 51.1593 59.4883 54.0899 67.5475C53.5016 67.2533 52.7939 66.242 52.3491 65.6065C52.3075 65.547 52.2682 65.4908 52.2314 65.4388C51.3715 64.2075 50.6611 62.8372 49.9485 61.4624C49.3579 60.3233 48.7658 59.1811 48.0857 58.1123C46.9804 56.3552 45.628 54.8229 44.2734 53.2881C42.2114 50.9518 40.1443 48.6097 38.9364 45.4605C38.5468 44.4717 38.3834 43.3823 38.2144 42.2556C38.1818 42.0386 38.149 41.8201 38.1144 41.6007C38.0965 41.3147 38.0876 41.0199 38.0787 40.725C38.0697 40.4302 38.0608 40.1353 38.0429 39.8494V37.3119C38.0429 36.7046 38.0429 36.1323 38.0786 35.525C38.0786 35.163 38.0878 34.801 38.0969 34.4437C38.1057 34.0954 38.1144 33.7515 38.1144 33.4163C38.1859 32.2369 38.1501 30.8431 37.9357 29.7352C37.4711 27.1262 36.8992 24.8031 35.7556 22.8375C35.3982 22.1942 34.9693 21.5509 34.5404 20.9433C34.4332 20.8182 34.326 20.6842 34.2188 20.5502L34.2183 20.5495C34.1112 20.4157 34.0042 20.2819 33.8971 20.157C34.3439 19.9962 34.7817 19.8354 35.2195 19.6745C35.6573 19.5137 36.0951 19.3529 36.5419 19.1921ZM163.774 19.5137C164.118 19.657 164.485 19.7773 164.838 19.8931C164.925 19.9217 165.012 19.95 165.096 19.9783C165.015 20.4246 164.842 20.8593 164.668 21.2956C164.536 21.628 164.403 21.9614 164.31 22.3014C163.846 24.1956 163.703 26.9832 164.06 29.1276C164.31 30.5929 164.516 32.0136 164.721 33.4342C164.927 34.8548 165.132 36.2755 165.382 37.7408C165.704 39.5635 165.811 42.1725 165.418 43.9595C164.668 47.2832 163.202 49.785 161.665 52.2867C161.308 52.8943 160.96 53.5108 160.611 54.1273C160.263 54.7438 159.914 55.3603 159.557 55.9679C158.234 58.2552 157.663 60.8642 157.091 63.9735C156.912 64.9742 156.805 67.0828 156.984 68.1908C157.019 68.8341 157.055 69.5131 157.091 70.1922C157.189 71.5653 157.317 72.9384 157.447 74.3389L157.484 74.7311C157.555 75.2672 157.618 75.8122 157.681 76.3572C157.743 76.9023 157.806 77.4473 157.877 77.9834C158.449 81.4144 158.485 86.2392 157.555 89.277C155.971 94.6129 152.162 97.4322 148.248 100.33C147.837 100.635 147.424 100.94 147.012 101.25C144.618 103.037 142.581 105.253 140.829 107.719C138.542 110.935 137.22 114.688 136.326 119.37C136.045 120.93 136.003 122.649 135.961 124.35C135.907 126.545 135.853 128.713 135.29 130.485C134.877 131.796 134.299 132.612 133.691 133.471C133.404 133.877 133.11 134.292 132.824 134.773C131.537 136.918 130.429 140.42 131.144 143.887C131.716 146.853 132.86 148.783 134.396 150.677C134.837 151.231 135.328 151.724 135.817 152.215C136.874 153.277 137.922 154.33 138.435 155.967C138.818 157.157 138.848 158.587 138.879 160.043C138.903 161.167 138.927 162.307 139.114 163.365C139.721 166.903 140.472 169.226 142.08 171.764C142.153 171.881 142.228 172.005 142.305 172.133L142.306 172.135C142.718 172.818 143.188 173.599 143.76 174.051C143.635 174.408 143.51 174.757 143.385 175.105C143.26 175.454 143.135 175.802 143.01 176.16L142.938 176.088L142.936 176.086C141.972 175.158 141.008 174.229 140.043 173.265C139.186 172.479 138.33 171.658 137.473 170.837L137.47 170.834C135.933 169.548 134.003 167.332 133.181 165.366C132.792 164.466 132.568 163.483 132.341 162.485C132.235 162.017 132.127 161.545 132.002 161.077C131.716 159.862 131.323 158.719 130.858 157.646C130.289 156.338 129.574 155.211 128.857 154.083C127.772 152.375 126.686 150.664 126.105 148.318C125.671 146.484 125.673 144.15 125.676 141.9L125.676 141.653L125.676 141.421C125.658 140.885 125.649 140.349 125.64 139.813L125.64 139.809C125.631 139.274 125.622 138.739 125.604 138.204C125.525 137.775 125.481 137.353 125.437 136.938L125.437 136.937C125.383 136.419 125.33 135.912 125.211 135.417C124.747 133.63 124.103 132.236 123.317 130.878C124.675 127.125 126.033 123.381 127.391 119.638C128.749 115.894 130.108 112.15 131.466 108.398C133.253 108.541 134.575 107.969 135.683 107.325C137.592 106.184 138.88 104.543 140.188 102.875C140.887 101.983 141.593 101.083 142.402 100.249C143.476 99.1225 144.781 98.2649 146.104 97.3945C146.587 97.0775 147.071 96.7589 147.548 96.4249C150.229 94.5307 152.516 92.565 153.839 89.277C156.038 83.7785 154.437 76.5615 153.231 71.1216C153.182 70.9042 153.135 70.6896 153.088 70.4781C152.919 69.7583 152.837 69.026 152.754 68.2811L152.754 68.2801C152.697 67.7678 152.639 67.2496 152.552 66.7255C152.534 66.511 152.525 66.2966 152.516 66.0822C152.507 65.8677 152.498 65.6533 152.48 65.4388C152.409 64.867 152.409 64.045 152.516 63.5089C152.657 62.6665 152.728 61.8758 152.798 61.0987C152.871 60.2933 152.943 59.5026 153.088 58.6841C153.195 57.9336 153.338 56.7899 153.195 55.8964C153.152 55.6171 153.114 55.3485 153.078 55.0884C152.967 54.2836 152.867 53.5609 152.623 52.8586C152.534 52.6441 152.445 52.4386 152.355 52.2331C152.266 52.0276 152.177 51.8221 152.087 51.6077C155.983 40.9216 159.878 30.2355 163.774 19.5137ZM167.42 20.8361C167.935 21.0365 168.473 21.214 168.998 21.387C169.128 21.4299 169.257 21.4725 169.385 21.5151C169.278 21.8725 169.171 22.2299 169.028 22.5873C168.885 23.2663 168.706 23.9454 168.527 24.5887C167.956 26.9475 167.813 30.45 168.349 32.9517C168.78 34.9261 169.269 36.7276 169.76 38.5391C170.043 39.5804 170.326 40.6251 170.6 41.7079C170.993 43.2447 171.387 45.5677 170.993 47.4262C170.493 49.6063 169.528 50.9644 168.349 52.4297L167.169 53.7163C166.634 54.3759 166.078 54.9767 165.53 55.5693C164.029 57.1922 162.584 58.7536 161.773 61.2931C160.272 66.0107 161.451 71.8362 162.523 76.1607C162.648 76.804 162.764 77.4473 162.881 78.0906L162.882 78.0955C162.997 78.7371 163.113 79.3788 163.238 80.0205C163.274 80.5387 163.318 81.0659 163.363 81.593C163.408 82.1202 163.452 82.6474 163.488 83.1656C163.524 83.5945 163.524 84.0233 163.524 84.4165C163.542 85.1803 163.551 85.9353 163.559 86.6858C163.568 87.4454 163.577 88.2004 163.595 88.9554L163.597 88.989L163.597 88.9909C163.632 89.8011 163.667 90.6117 163.703 91.4571C163.822 92.1757 163.886 92.8887 163.948 93.5869C164.034 94.5551 164.118 95.4964 164.346 96.3892C164.953 98.8194 165.668 101 166.919 102.787C167.221 103.202 167.564 103.568 167.903 103.931C168.206 104.255 168.508 104.577 168.778 104.931C167.759 107.772 166.732 110.604 165.704 113.437C164.676 116.269 163.649 119.102 162.63 121.943H162.595C162.511 121.608 162.411 121.281 162.311 120.95L162.311 120.95C162.197 120.575 162.082 120.197 161.987 119.798C161.951 119.513 161.925 119.219 161.898 118.925L161.898 118.923L161.898 118.921C161.871 118.627 161.844 118.333 161.808 118.047V116.618C161.826 115.956 161.835 115.295 161.844 114.634L161.844 114.629C161.853 113.97 161.862 113.31 161.88 112.651C161.88 112.365 161.871 112.079 161.862 111.793C161.853 111.507 161.844 111.221 161.844 110.935C161.775 110.547 161.727 110.165 161.68 109.788C161.606 109.192 161.533 108.609 161.38 108.04C161.022 106.575 160.558 105.253 159.986 103.966C159.92 103.822 159.854 103.67 159.785 103.514C159.292 102.386 158.69 101.01 157.591 100.571C156.948 100.32 156.126 100.571 155.661 100.821C154.736 101.366 153.906 102.101 153.086 102.826C152.67 103.193 152.258 103.558 151.837 103.894C149.085 106.075 146.619 108.862 145.225 112.365C144.859 113.282 144.622 114.303 144.383 115.34L144.383 115.341C144.342 115.516 144.302 115.692 144.26 115.867C144.127 116.535 144.085 117.244 144.042 117.966C144.005 118.597 143.967 119.237 143.867 119.87C143.849 120.137 143.84 120.405 143.832 120.672L143.832 120.674C143.823 120.942 143.814 121.21 143.796 121.478V123.372C143.778 123.98 143.769 124.579 143.76 125.177C143.751 125.776 143.742 126.375 143.724 126.982C143.653 127.625 143.581 128.304 143.546 128.948C143.498 129.192 143.453 129.435 143.409 129.676C143.219 130.704 143.035 131.696 142.688 132.593C142.466 133.168 142.104 133.823 141.713 134.532C140.719 136.332 139.536 138.476 139.972 140.527C140.354 142.236 141.265 143.345 142.184 144.463C142.552 144.911 142.922 145.361 143.26 145.852C144.01 146.889 144.403 148.14 144.654 149.677C145.011 151.607 144.618 154.144 144.26 155.788C144.124 156.549 144.062 157.299 143.999 158.062C143.946 158.697 143.893 159.34 143.796 160.005C143.653 160.792 143.653 161.971 143.796 162.793L143.807 162.863C144.052 164.443 144.271 165.848 144.975 167.01C145.261 167.439 145.547 167.868 145.833 168.333C145.759 168.54 145.685 168.749 145.61 168.96C145.326 169.762 145.037 170.577 144.725 171.37C144.725 171.37 144.725 171.335 144.689 171.335C144.475 170.995 144.26 170.647 144.046 170.298C143.832 169.95 143.617 169.601 143.403 169.262C142.545 167.725 142.045 165.867 141.616 163.901C141.508 163.346 141.499 162.756 141.491 162.156C141.482 161.558 141.473 160.952 141.365 160.363V159.576L141.258 157.646C141.227 157.473 141.197 157.301 141.167 157.132C140.995 156.153 140.838 155.253 140.472 154.43C139.733 152.688 138.57 151.468 137.402 150.241C136.028 148.799 134.646 147.348 133.932 145.03C133.61 143.958 133.181 142.35 133.431 140.849C133.471 140.627 133.508 140.411 133.544 140.2L133.545 140.195C133.736 139.079 133.905 138.098 134.325 137.168C134.674 136.36 135.171 135.698 135.667 135.037C135.983 134.616 136.298 134.195 136.576 133.737C137.291 132.486 137.72 131.021 138.042 129.412C138.192 128.682 138.224 127.912 138.256 127.128C138.286 126.417 138.316 125.695 138.435 124.981L138.435 124.979C138.471 124.301 138.506 123.622 138.506 122.944C138.578 122.122 138.614 121.335 138.649 120.513C138.828 119.585 138.971 118.656 139.114 117.727L139.114 117.726C139.829 115.009 140.722 112.579 142.009 110.435C143.403 108.076 145.225 105.824 147.298 104.145C148.044 103.559 148.806 102.985 149.57 102.41C152.903 99.901 156.261 97.3727 158.413 93.7087C159.199 92.3149 159.736 90.6709 160.164 88.9554C160.951 85.8818 160.879 80.8425 160.272 77.5545L160.242 77.263L160.241 77.2613C160.144 76.3165 160.044 75.3451 159.914 74.3737C159.764 73.5086 159.722 72.6435 159.68 71.768C159.642 70.9797 159.604 70.1829 159.485 69.3702C159.199 67.6547 159.378 64.724 159.7 63.1873C160.021 61.6147 160.343 60.1494 160.915 58.8271C161.723 56.8991 162.769 55.1808 163.815 53.4603C165.174 51.2261 166.536 48.9882 167.384 46.2825C167.599 45.5819 167.713 44.861 167.833 44.1045L167.833 44.1022C167.872 43.8561 167.912 43.6061 167.956 43.3519C168.17 42.1725 168.17 40.457 167.991 39.2776C167.973 38.9602 167.944 38.6429 167.916 38.3306L167.916 38.3286C167.891 38.0438 167.865 37.7631 167.848 37.4906C167.724 36.7241 167.608 35.9576 167.492 35.191L167.491 35.1854L167.49 35.1798C167.374 34.4133 167.258 33.6468 167.134 32.8802C166.562 30.307 165.918 26.4114 166.562 23.4808C166.776 22.5158 167.026 21.6223 167.42 20.8361ZM31.2882 21.1577H31.3596C33.4683 22.766 34.5404 25.6966 35.291 28.6987C35.3962 29.1407 35.4519 29.5952 35.509 30.062C35.549 30.3878 35.5896 30.7196 35.6484 31.0575C35.7556 31.8081 35.7913 32.916 35.6484 33.7023C35.6484 34.3456 35.6484 34.9889 35.6126 35.6322C35.6126 36.2397 35.6126 36.8831 35.5769 37.4906V39.7422C35.5951 39.9969 35.604 40.2515 35.6131 40.5108C35.6219 40.7611 35.6308 41.0157 35.6484 41.279C35.7175 41.7078 35.7653 42.1367 35.8123 42.5593C35.8869 43.2285 35.9596 43.8822 36.113 44.4955C37.1223 48.4715 39.257 51.0342 41.4645 53.6841C41.8365 54.1308 42.2107 54.5799 42.5818 55.0387C42.9456 55.5029 43.3315 55.9538 43.7192 56.4071C44.4361 57.245 45.1596 58.0905 45.7626 59.0415C46.4538 60.1292 47.0839 61.3391 47.7212 62.5629C49.0943 65.1993 50.501 67.9004 52.6246 69.5846C53.4823 70.2994 54.3758 70.7998 55.448 71.3001C56.3415 73.8019 57.2439 76.3036 58.1463 78.8054C59.0487 81.3071 59.9511 83.8089 60.8446 86.3106C59.2721 86.0605 57.6996 85.3457 56.3772 84.7381C52.7318 83.1656 49.7654 80.6638 48.729 76.4466C48.4434 75.3042 48.4824 73.9489 48.5217 72.5805C48.5562 71.3802 48.591 70.1698 48.4073 69.0843C48.0142 66.8684 47.5496 65.3316 46.4417 63.8663C45.0574 62.029 42.9109 60.9715 40.7512 59.9076C39.8442 59.4607 38.9348 59.0128 38.0786 58.5054C34.3617 56.2538 31.3954 53.1802 30.1802 48.4269C29.8943 47.176 29.7871 45.3176 30.0373 43.9237C30.0753 43.5246 30.1235 43.1248 30.171 42.7311C30.2127 42.3846 30.254 42.0423 30.2875 41.7079C30.4933 40.7261 30.6922 39.7513 30.8902 38.7804L30.8904 38.7796C31.1392 37.5596 31.3869 36.3457 31.6456 35.1318C32.0744 33.2376 32.3961 30.4857 32.0029 28.3056C31.6098 26.4114 31.1452 24.7674 30.2875 23.3736C30.0612 23.0217 29.8173 22.6874 29.5682 22.346C29.4631 22.202 29.3571 22.0567 29.251 21.9083L31.2882 21.1577ZM171.708 22.3729L171.71 22.3734C173.532 23.0166 175.354 23.6597 177.176 24.3385C177.15 24.496 177.124 24.6557 177.097 24.8185C177.014 25.3208 176.927 25.8534 176.819 26.4472C176.682 27.3017 176.938 28.3197 177.117 29.0321L177.141 29.1276C177.748 31.2362 178.57 33.0232 179.571 34.7744C180.5 36.3112 181.608 38.9559 181.143 41.6007C180.435 45.7059 178.857 48.7252 177.256 51.7893C176.516 53.2067 175.77 54.6338 175.103 56.1823C173.996 58.7913 172.888 62.6869 173.674 66.4395C173.705 66.5839 173.737 66.7277 173.767 66.8709C173.981 67.8616 174.188 68.8221 174.532 69.7276C175.675 72.5867 177.176 74.874 178.82 77.1614L178.818 77.169C175.781 85.5652 172.744 93.9614 169.707 102.322C169.671 102.322 169.635 102.286 169.6 102.25C169.421 102.036 169.242 101.786 169.064 101.536C168.635 100.964 168.206 100.249 167.92 99.5342C167.241 97.9617 166.812 96.2819 166.419 94.352C166.305 93.7427 166.282 93.1233 166.258 92.4883C166.237 91.9314 166.216 91.3625 166.133 90.7781C166.097 89.6344 166.061 88.4907 166.061 87.3471C166.061 87.0076 166.053 86.677 166.044 86.3464C166.035 86.0158 166.026 85.6852 166.026 85.3457C166.026 85.0373 166.016 84.7289 166.007 84.4252C165.999 84.1305 165.99 83.8403 165.99 83.5587C165.871 82.8958 165.841 82.2249 165.811 81.565C165.779 80.8375 165.747 80.1234 165.597 79.4487C165.454 78.6982 165.311 77.9566 165.168 77.215C165.025 76.4734 164.882 75.7318 164.739 74.9813C163.846 71.3716 162.773 66.2251 164.024 62.258C164.574 60.5054 165.587 59.2154 166.585 57.9432L166.705 57.7906C167.032 57.4634 167.329 57.1359 167.652 56.7812L167.741 56.6827C168.152 56.2721 168.546 55.8453 168.935 55.4242L168.935 55.4237C169.122 55.2217 169.307 55.0211 169.492 54.8242C169.573 54.7242 169.654 54.6248 169.734 54.5257L169.734 54.5253C171.286 52.6083 172.707 50.8524 173.352 47.998C174.172 44.3274 172.827 40.1158 171.882 37.1546C171.796 36.8866 171.714 36.6289 171.637 36.3827C170.314 32.1655 169.993 26.4829 171.708 22.3729ZM26.7493 22.8375C27.1332 22.9655 27.6604 23.8095 27.9461 24.267C27.969 24.3038 27.9904 24.338 28.0101 24.3692C28.0191 24.3835 28.0277 24.3971 28.0359 24.41C29.0366 26.054 30.1088 29.0204 29.6442 31.9153C29.5395 32.4737 29.4773 33.015 29.4162 33.5477C29.3522 34.1059 29.2893 34.6546 29.1795 35.2033C29.1047 35.536 29.0272 35.8754 28.9482 36.2206C27.9335 40.6599 26.6969 46.0692 28.3218 50.6785C29.8943 55.1459 33.0037 58.291 36.792 60.5783C37.5828 61.0461 38.45 61.4583 39.3232 61.8735C41.2519 62.7904 43.2102 63.7214 44.4403 65.2959C45.2265 66.2608 45.6197 67.4045 45.9056 68.8698C46.0539 69.6611 46.0483 70.5379 46.0426 71.4293C46.0401 71.8262 46.0375 72.226 46.0485 72.6225C46.0485 74.5524 46.12 76.4823 46.5846 77.9834C48.1214 82.8439 52.0527 85.7388 56.6274 87.5615C57.5211 87.8967 58.4585 88.1663 59.4054 88.4387C59.6702 88.5149 59.9358 88.5913 60.2013 88.6694C60.7374 88.8124 61.3092 88.9554 61.8811 89.0983C62.1491 89.8667 62.4261 90.6262 62.7031 91.3857C62.98 92.145 63.2571 92.9047 63.5251 93.673L63.4893 93.7087C60.4712 93.7794 58.8842 92.6678 57.2505 91.5235C56.408 90.9333 55.5531 90.3345 54.483 89.8846C52.8033 89.1698 50.5874 88.8839 49.1579 90.0275C48.1929 90.7781 48.1214 92.5293 48.8362 93.6015C49.3776 94.4278 50.2143 94.7998 51.129 95.2064C51.3616 95.3098 51.5992 95.4155 51.8383 95.5314C52.9462 96.1032 53.9469 96.818 54.6617 97.7473C55.2693 98.4978 55.7697 99.3913 56.0913 100.392C56.3584 101.253 56.5516 102.181 56.7451 103.111C57.0175 104.42 57.2904 105.732 57.771 106.861C59.3078 110.506 62.4529 112.901 66.8131 113.759C67.5994 113.937 68.7788 114.044 69.6723 113.901C69.8686 113.866 70.0559 113.839 70.2433 113.812L70.2441 113.812L70.2449 113.812C70.4323 113.785 70.6197 113.758 70.816 113.723L70.8165 113.724C71.2452 114.975 71.6739 116.225 72.1383 117.44C71.8559 117.421 71.5734 117.392 71.2963 117.364C71.0473 117.339 70.8025 117.314 70.5658 117.297C69.5293 117.118 67.4207 117.154 66.42 117.332L66.3203 117.337L66.3193 117.337C65.4925 117.371 64.6352 117.407 63.811 117.475C62.9175 117.475 62.024 117.511 61.1305 117.547C57.4136 117.547 54.8047 116.868 52.6961 115.295C50.8376 113.937 49.551 111.829 48.9077 109.22C48.729 108.469 48.5145 107.29 48.6575 106.289C48.742 105.767 48.8562 105.205 48.9753 104.619C49.4103 102.478 49.9104 100.018 49.2651 97.9974C48.4386 95.2906 46.4414 93.6709 44.4476 92.054C42.9927 90.8741 41.5397 89.6958 40.5447 88.0976C39.3488 86.168 38.6904 83.7837 38.0192 81.3534L38.019 81.3525C37.8076 80.5872 37.5949 79.8173 37.3639 79.0555C36.5418 76.4108 35.6126 73.9448 34.1116 71.9791C31.717 68.7983 28.1788 66.9399 23.8544 65.6533C22.7236 65.3192 21.5188 65.1144 20.2933 64.9062C19.8146 64.8248 19.3327 64.7429 18.8509 64.6526C18.7002 64.6115 18.392 64.5861 18.055 64.5584C17.5129 64.5138 16.8965 64.4632 16.7422 64.3309C15.7596 61.5975 14.7681 58.864 13.7765 56.1305L13.7759 56.1287C12.7841 53.3947 11.7923 50.6606 10.8095 47.9265C12.1318 48.1767 13.7759 49.6778 14.4192 50.6785C14.586 50.9336 14.7394 51.1969 14.8919 51.4586C15.2946 52.15 15.6912 52.8306 16.3134 53.3232C17.0281 53.8593 18.3148 54.6098 19.5656 54.1094C21.4241 53.3947 21.9602 51.0716 21.2811 48.7128C20.8008 47.1705 20.07 45.8608 19.3418 44.5558C19.0407 44.0161 18.74 43.4772 18.4577 42.923C17.9931 42.0295 17.3498 40.6714 17.6 39.2419C17.9448 37.4947 19.3099 36.3834 20.6301 35.3087C21.3623 34.7127 22.0807 34.1279 22.6035 33.4521C23.7829 31.9868 24.7836 29.3778 24.2475 26.5901C24.194 26.3223 24.1315 26.0635 24.069 25.8047L24.0688 25.8038L24.0686 25.8031C24.0061 25.5442 23.9437 25.2854 23.8901 25.0176C23.8451 24.8824 23.7937 24.7473 23.7413 24.6095C23.6691 24.4193 23.5949 24.2241 23.5327 24.0169L26.7493 22.8375ZM21.2097 24.9104C21.3002 25.0009 21.3477 25.1631 21.3976 25.3334C21.4265 25.432 21.4562 25.5334 21.4956 25.6251C21.9959 27.0547 21.9959 29.3063 21.4598 30.6644C20.8571 32.1552 19.2691 33.4209 17.9951 34.4363C17.8336 34.5649 17.6772 34.6896 17.5285 34.8102C16.1704 35.9181 15.5271 37.3477 15.134 39.492C14.991 40.4213 15.3841 41.7079 15.5986 42.3512C16.0938 43.8121 16.7606 45.0329 17.4325 46.2631C17.7304 46.8085 18.0293 47.3557 18.3148 47.9265C18.7794 48.7843 19.5299 50.6427 18.8509 51.7506C17.9486 51.9762 17.2688 50.7337 16.7939 49.8657C16.6668 49.6334 16.5544 49.428 16.4563 49.2846C15.3126 47.6764 13.7401 46.4255 11.7387 45.6392C11.3976 45.4988 11.034 45.4259 10.6604 45.351C10.3687 45.2926 10.0709 45.2329 9.77305 45.1389C9.36346 43.9991 8.95386 42.8505 8.54426 41.7018L8.54004 41.69C8.12904 40.5374 7.71804 39.3848 7.30703 38.2412C7.55789 38.1379 7.80874 38.0711 8.05456 38.0057C8.40412 37.9127 8.74351 37.8224 9.05826 37.6336C10.2734 36.9188 11.3098 35.7751 12.1676 34.703C12.3487 34.4758 12.5252 34.2574 12.6969 34.045C14.3891 31.9517 15.6122 30.4386 16.0989 26.8045C17.7787 26.1612 19.4942 25.5179 21.2097 24.9104ZM179.499 25.1605C180.393 25.4822 181.295 25.8038 182.198 26.1255C183.1 26.4472 184.003 26.7688 184.896 27.0905C184.806 27.6004 184.691 28.0851 184.572 28.587C184.549 28.6831 184.526 28.7798 184.503 28.8774C184.253 30.3785 184.467 32.1655 184.789 33.4521L186.183 38.3841C186.283 38.76 186.313 39.1189 186.347 39.5213L186.347 39.5225C186.361 39.6934 186.376 39.8723 186.397 40.0639V41.9223C186.038 44.2883 185.367 46.2548 184.693 48.2276C184.227 49.5924 183.76 50.9602 183.395 52.4654C182.93 54.3596 182.716 57.2903 183.216 59.3631C183.467 60.3996 183.824 61.2931 184.253 62.1508C182.752 66.2251 181.286 70.2994 179.821 74.4094C179.785 74.3737 179.785 74.3737 179.785 74.3379C179.286 73.8631 178.926 73.1786 178.571 72.5043C178.418 72.2143 178.267 71.9262 178.106 71.6575C176.426 68.7983 175.103 64.0093 176.39 59.7563C177.237 56.9683 178.489 54.6099 179.741 52.2537C180.655 50.5322 181.568 48.8118 182.323 46.9258C182.939 45.3056 183.202 43.8322 183.538 41.9464L183.543 41.9201C183.576 41.7344 183.61 41.5447 183.645 41.3505C183.86 40.0996 183.574 38.6343 183.324 37.6693C182.873 35.8208 182.109 34.3337 181.342 32.8434C180.953 32.0862 180.563 31.3282 180.214 30.5214C179.571 29.0561 178.963 27.1619 179.499 25.1605ZM13.4185 27.7695H13.4899C13.456 28.4135 13.1329 29.0574 12.8862 29.549L12.8466 29.628C11.7387 31.5579 10.4521 33.0947 8.95104 34.5957C8.9243 34.6204 8.89553 34.6472 8.8649 34.6758C8.36323 35.1437 7.35665 36.0824 6.41355 35.8466C6.12763 35.0425 5.84171 34.2473 5.5558 33.4521C5.26988 32.6569 4.98396 31.8617 4.69805 31.0575C6.14549 30.5036 7.60187 29.9586 9.05826 29.4135C10.5146 28.8685 11.971 28.3235 13.4185 27.7695ZM191.369 29.4443L191.383 29.4493C192.768 29.9496 194.153 30.45 195.546 30.9503L195.546 30.9511C192.222 40.1359 188.899 49.3206 185.539 58.5054C185.522 58.2408 185.497 57.96 185.471 57.6696C185.388 56.744 185.296 55.722 185.432 54.8242C185.84 52.4771 186.504 50.5489 187.175 48.5975C187.444 47.8152 187.714 47.0292 187.97 46.211C188.351 45.0081 188.54 43.8051 188.753 42.444L188.753 42.443C188.8 42.1464 188.848 41.8424 188.899 41.5292C189.171 39.7278 188.505 37.4412 188.101 36.0534C188.08 35.9821 188.06 35.9131 188.041 35.8466C187.541 34.3456 187.183 32.9875 186.933 31.2362C186.915 31.0397 186.906 30.8431 186.897 30.6465C186.889 30.45 186.88 30.2534 186.862 30.0568C186.924 29.6243 186.997 29.2155 187.069 28.8167L187.07 28.8141C187.122 28.5219 187.174 28.2351 187.219 27.9482C188.608 28.4469 189.989 28.9456 191.369 29.4443ZM60.7017 29.4135C61.2378 29.6994 61.7739 30.0211 62.3099 30.3427L62.4624 30.4311C64.2017 31.4388 65.9807 32.4694 66.8489 34.3098C67.8853 36.5257 66.5272 38.4198 65.5265 39.6707C65.4998 39.705 65.4723 39.741 65.444 39.778C65.2069 40.0878 64.9127 40.4722 64.5615 40.6C63.9205 38.7481 63.2795 36.8873 62.6384 35.0265L62.6316 35.0067L62.6248 34.987C61.9837 33.1262 61.3427 31.2654 60.7017 29.4135ZM123.71 37.3119C125.334 37.3119 126.091 37.9683 126.904 38.6735C127.04 38.7911 127.177 38.91 127.32 39.0274C128.397 39.8957 129.338 41.1015 130.21 42.2184L130.286 42.3154C131.609 43.7808 132.895 45.2461 134.182 46.7471C132.931 50.464 131.644 54.2167 130.358 57.9336C130.072 58.7913 129.786 59.6491 129.5 60.4711C129.479 60.5131 129.455 60.5986 129.427 60.6982C129.359 60.937 129.269 61.2573 129.143 61.2573C128.746 61.2268 127.726 60.7023 127.168 60.4156C127.072 60.3662 126.99 60.3239 126.927 60.2924C124.925 59.2559 123.317 57.9693 122.638 55.6105C122.495 55.1459 122.352 54.4311 122.459 53.8235C122.71 52.5684 123.224 51.5611 123.739 50.5502C124.03 49.9779 124.323 49.4044 124.568 48.7843C124.818 48.141 124.925 47.4262 125.033 46.6042C125.358 44.7697 123.969 42.9352 122.994 41.6483C122.792 41.3808 122.607 41.1369 122.459 40.9216C122.03 40.2783 121.316 39.1346 121.995 38.2054C122.266 37.8102 122.641 37.6881 123.082 37.5442C123.279 37.4799 123.49 37.4113 123.71 37.3119ZM115.347 51.2146C115.672 51.5393 115.495 52.2182 115.38 52.6613C115.368 52.7058 115.357 52.7479 115.347 52.7871C114.99 53.9665 114.775 55.6462 115.133 57.0043C115.601 58.911 116.539 60.3794 117.478 61.8489C117.542 61.9495 117.606 62.0501 117.67 62.1508C119.136 64.4739 120.708 66.5468 123.103 67.9406C123.996 68.4767 125.211 68.8698 126.605 68.8698C125.998 70.6568 125.39 72.4438 124.747 74.2665C122.316 73.0871 120.208 71.5145 119.1 68.977C118.671 67.9852 118.415 66.964 118.166 65.9753C117.69 64.0781 117.243 62.3004 115.669 61.0786C115.055 60.6065 114.317 60.2383 113.578 59.8703C112.64 59.4026 111.703 58.9352 111.023 58.2552L110.993 58.2227C110.666 57.8596 110.099 57.2312 110.272 56.4683C110.395 55.8535 111.449 55.4587 112.35 55.1209C112.759 54.9677 113.136 54.8262 113.382 54.6813C114.096 54.2524 114.704 53.5734 114.99 52.7156C115.133 52.2153 115.24 51.7149 115.347 51.2146ZM150.693 55.4676C150.944 56.0751 150.729 58.291 150.586 58.8985C150.46 59.6359 150.398 60.3551 150.335 61.0791C150.273 61.7938 150.21 62.513 150.086 63.2587C149.979 63.8663 149.943 64.7598 150.05 65.3674C150.05 65.6043 150.059 65.832 150.069 66.0551C150.077 66.2694 150.086 66.4796 150.086 66.6897C150.196 67.3493 150.271 68.002 150.346 68.6448C150.44 69.4648 150.533 70.2686 150.693 71.0499C150.745 71.2828 150.797 71.5192 150.85 71.7588C152.128 77.5486 153.817 85.1956 150.693 90.2062C149.422 92.2006 147.472 93.4937 145.525 94.785C145.065 95.0904 144.604 95.3957 144.153 95.7101C143.117 96.4606 142.116 97.2469 141.151 98.0332C140.071 98.9005 139.246 100.048 138.419 101.199C137.575 102.371 136.73 103.547 135.611 104.431L135.586 104.451C134.768 105.091 133.738 105.897 132.359 105.967L150.693 55.4676ZM71.5665 60.6855C72.3527 61.3288 73.2462 63.1515 72.9246 64.6526C72.6923 63.9915 72.4688 63.3301 72.2455 62.669C72.0222 62.008 71.7987 61.3465 71.5665 60.6855ZM85.9694 61.3646C87.0065 61.3331 87.7119 61.9096 88.3288 62.4137C88.3935 62.4666 88.4572 62.5186 88.5202 62.5691C88.5396 62.5847 88.5591 62.6002 88.5784 62.6154C90.4726 63.9735 92.5455 65.5461 93.1888 68.1193C93.3397 68.6662 93.3114 69.2729 93.2826 69.892C93.2568 70.4461 93.2305 71.0101 93.3318 71.5503C93.5105 72.7654 93.6891 73.7304 94.118 74.6596C94.9155 76.4916 96.2458 77.8297 97.576 79.1676C98.4517 80.0483 99.3273 80.929 100.051 81.9504C101.051 83.38 102.016 85.7388 100.766 87.7045C100.015 88.8839 98.4068 88.9554 96.9057 88.4193C96.3998 88.2426 95.8471 87.9938 95.2591 87.7292C93.2303 86.8159 90.7827 85.7143 88.3997 86.7395C86.86 87.4114 86.1755 88.7412 85.453 90.1448C85.2532 90.533 85.0503 90.9271 84.8258 91.3142C84.798 91.3622 84.7697 91.4121 84.7406 91.4634C84.3582 92.138 83.8439 93.0452 82.6814 92.7795C82.6099 92.4936 82.5027 92.2076 82.3955 91.9217C82.5742 91.8503 82.7529 91.743 82.9316 91.6358C83.3962 91.3142 83.7893 90.8138 84.0395 90.242C84.2454 89.7986 84.339 89.2641 84.4322 88.7316C84.5494 88.0622 84.6661 87.396 85.0045 86.9182C85.4741 86.2608 86.2179 85.7953 86.9237 85.3537L86.9243 85.3533C87.024 85.2909 87.123 85.2289 87.2203 85.167L87.3175 85.1077C88.7517 84.2337 90.2056 83.3476 91.0444 81.9147C92.0094 80.3422 91.5448 78.305 90.3297 77.4115C89.9008 77.0899 89.4004 76.7682 88.8643 76.6253C87.7207 76.2679 86.3983 76.5895 85.5763 76.9469C83.968 77.6617 82.6457 78.9841 81.6092 80.2707C81.0017 81.0212 80.1082 81.879 78.9645 82.0934C78.937 81.9417 78.8562 81.7528 78.7735 81.5594C78.6419 81.2517 78.5055 80.9328 78.5714 80.7353C79.1511 80.4454 80.1086 79.2554 80.6321 78.6046C80.6893 78.5334 80.7414 78.4686 80.7872 78.4122C82.7529 75.839 84.111 73.0513 84.8973 69.2629C85.1832 67.8334 85.2904 65.832 85.0402 64.2594C84.933 63.4017 85.0402 62.1866 85.3619 61.7219C85.4734 61.5547 85.6284 61.4961 85.81 61.4276C85.8611 61.4083 85.9144 61.3881 85.9694 61.3646ZM17.7072 66.9399C19.0295 67.0114 20.4234 67.333 21.6028 67.6189C27.3926 69.12 31.5026 71.0857 33.7184 76.1249C34.5005 77.8996 35.0547 79.8768 35.6075 81.8488C36.3683 84.5629 37.1263 87.2672 38.4718 89.42C39.6512 91.3499 41.3309 92.8152 43.0822 94.1733L43.2281 94.2863C44.6243 95.3667 46.2133 96.5962 46.8348 98.4263C47.4546 100.155 46.943 102.331 46.55 104.002C46.5125 104.161 46.476 104.317 46.4417 104.466C46.3332 104.965 46.3037 105.464 46.2733 105.98C46.2537 106.313 46.2336 106.653 46.1915 107.004C46.0843 107.79 46.2987 108.826 46.4417 109.47C46.9778 111.757 47.8355 113.437 49.0149 115.045C50.9806 117.654 53.6968 119.048 57.5566 119.798C58.593 120.013 60.8804 120.156 62.0598 119.977C62.5601 119.959 63.0515 119.932 63.543 119.906C64.0344 119.879 64.5258 119.852 65.0262 119.834C65.6337 119.798 66.2413 119.763 66.8489 119.763C68.7073 119.441 71.5665 119.727 73.1032 120.084L73.1093 120.101L73.1103 120.104C75.9313 127.924 78.7524 135.745 81.6092 143.565C80.3941 143.458 79.179 142.707 78.3212 142.171C75.7122 140.599 73.6751 138.562 71.8524 136.203C70.776 134.787 69.6323 133.393 68.4924 132.004C68.194 131.64 67.896 131.277 67.5994 130.913C66.7417 129.805 65.7409 128.626 64.633 127.733C63.2034 126.589 61.7739 125.553 60.1298 124.588C58.1911 123.464 55.9873 122.516 53.831 121.59C53.2446 121.338 52.6616 121.087 52.0885 120.835C51.6953 120.656 51.2933 120.469 50.8912 120.281C50.4891 120.093 50.0871 119.906 49.6939 119.727C49.4664 119.593 49.2401 119.462 49.0153 119.331C48.0396 118.765 47.0919 118.215 46.1915 117.547C45.8239 117.302 45.503 117.01 45.1821 116.718C44.9414 116.5 44.7007 116.281 44.4403 116.082C43.0464 114.938 41.867 113.258 41.1522 111.471C40.8306 110.685 40.3302 108.684 40.5089 107.468L40.5145 107.367C40.5483 106.761 40.5804 106.186 40.5804 105.61C40.8663 103.894 40.7948 101.5 40.366 100.07C39.6003 97.4755 37.9486 96.0072 36.2847 94.5281C35.1526 93.5216 34.0149 92.5102 33.1466 91.1355C32.0171 89.3336 31.4137 87.1472 30.7883 84.8808C30.5826 84.1354 30.3745 83.3814 30.1445 82.6295C29.0366 78.9483 27.8214 75.7318 25.1052 73.6946C23.6399 72.551 21.9959 71.6217 19.3869 71.6217C18.8151 70.085 18.2433 68.5124 17.7072 66.9399ZM108.092 69.2629C109.557 69.2629 110.451 69.9777 111.094 70.7998L111.134 70.8498C111.658 71.514 112.211 72.2138 112.56 73.0156C112.845 73.6589 113.131 74.2933 113.417 74.9277C113.703 75.562 113.989 76.1964 114.275 76.8397C114.74 77.626 115.276 78.3408 115.812 79.0198C116.777 80.1992 118.349 81.0212 119.85 81.6288C120.226 81.736 120.592 81.8343 120.958 81.9326C121.325 82.0309 121.691 82.1291 122.066 82.2364L120.565 86.6323C120.043 86.2407 119.635 85.6776 119.245 85.1378C119.101 84.9387 118.958 84.7424 118.814 84.5594C117.813 83.2728 115.669 81.736 113.489 82.701C112.988 82.9154 112.631 83.1656 112.309 83.5587C111.916 84.0591 111.559 84.5594 111.38 85.2027C111.166 85.9175 110.916 86.9897 111.058 87.9547C111.273 89.2413 111.344 91.0997 110.737 91.9217C110.326 92.5123 109.657 92.9184 109.008 93.3123C108.754 93.4667 108.502 93.6192 108.271 93.7802C106.734 94.8524 105.197 96.7108 105.805 99.6057C106.412 102.608 108.521 104.359 110.594 105.932C110.815 106.097 111.052 106.263 111.294 106.431L111.294 106.432C111.992 106.918 112.725 107.43 113.203 108.04C112.861 109.122 112.497 110.18 112.128 111.252C112.034 111.527 111.939 111.802 111.845 112.079H111.773C109.595 111.197 108.96 109.036 108.297 106.784C108.047 105.931 107.792 105.066 107.449 104.252C106.305 101.571 105.019 100.714 102.767 99.2483C101.981 98.7122 100.087 97.3899 100.623 95.996C101.002 95.0105 102.274 94.4716 103.417 93.9878C103.89 93.7874 104.341 93.5964 104.697 93.3871C106.734 92.1719 108.092 90.3135 108.628 87.5615C108.914 86.0605 108.557 84.3092 108.164 83.1656C107.765 81.8806 107.266 80.7239 106.769 79.5702C106.284 78.4457 105.8 77.324 105.412 76.0892C104.59 73.4802 105.126 70.7283 106.984 69.6203C107.183 69.488 107.408 69.4373 107.645 69.3843C107.791 69.3514 107.942 69.3177 108.092 69.2629ZM20.2804 74.1235C25.5774 75.0866 26.9756 80.1397 28.3641 85.1578C29.1397 87.9609 29.9122 90.753 31.3596 92.8152C32.1102 93.9231 33.1109 94.9953 34.1473 95.8531C35.7198 97.104 37.3281 98.462 38.0072 100.678C38.2931 101.679 38.4003 103.537 38.1859 104.788C38.1859 105.02 38.1769 105.261 38.168 105.503C38.1591 105.744 38.1501 105.985 38.1501 106.217C38.1323 106.557 38.1233 106.897 38.1144 107.236C38.1054 107.576 38.0965 107.915 38.0786 108.255L38.0981 108.43C38.1628 109.009 38.2248 109.564 38.2573 110.149C38.5075 111.292 38.8292 112.257 39.258 113.222C39.7792 114.41 40.535 115.339 41.2973 116.276C41.4759 116.495 41.6549 116.715 41.8313 116.939C42.5206 117.76 43.3608 118.43 44.1855 119.088L44.2568 119.144C44.3061 119.184 44.3554 119.223 44.4045 119.262C46.2272 120.62 48.2644 121.836 50.4445 122.801C51.1926 123.134 51.953 123.461 52.7161 123.789C55.6351 125.045 58.5942 126.319 61.0591 128.019C63.9562 130.072 66.1102 132.86 68.2643 135.647C70.3087 138.293 72.3531 140.939 75.0332 142.958C76.4628 144.03 78.1068 145.066 80.0367 145.71C80.3779 145.803 80.7394 145.862 81.1093 145.923C81.5918 146.002 82.0887 146.084 82.5742 146.246C85.4964 154.3 88.4097 162.353 91.323 170.407L91.3482 170.477C94.2699 178.554 97.1916 186.631 100.122 194.708C102.374 188.561 104.625 182.378 106.841 176.231C107.127 175.463 107.404 174.694 107.681 173.926L107.682 173.925C107.958 173.157 108.235 172.389 108.521 171.621C108.573 171.503 108.64 171.286 108.712 171.05C108.837 170.64 108.979 170.175 109.093 170.084C109.307 170.548 109.486 171.013 109.665 171.478C109.843 172.037 109.948 172.651 110.059 173.294L110.059 173.297C110.104 173.556 110.149 173.82 110.201 174.087C110.415 175.409 110.344 177.911 110.129 179.162C110.076 179.768 110.013 180.374 109.951 180.98L109.951 180.984L109.95 180.989C109.888 181.595 109.825 182.201 109.772 182.807C109.2 185.988 108.7 190.848 109.486 194.172C110.129 196.888 111.309 199.819 113.167 201.32C113.648 201.706 114.152 202.074 114.656 202.442C116.439 203.742 118.236 205.052 119.1 207.253C120.101 209.79 119.958 213.936 119.422 216.938C119.35 217.903 119.243 218.904 119.136 219.869C118.885 221.334 118.957 223.407 119.243 224.765C119.707 227.052 120.458 228.839 121.637 230.376C121.799 230.578 122.001 230.746 122.193 230.906C122.679 231.31 123.099 231.66 122.638 232.378C119.207 230.662 116.705 227.017 115.74 222.728C115.521 221.688 115.526 220.499 115.531 219.29C115.535 218.13 115.54 216.951 115.347 215.866L115.337 215.802C114.914 213.16 114.659 211.562 113.489 209.719C111.004 205.837 106.271 204.029 101.61 202.247C100.305 201.748 99.0062 201.252 97.7634 200.712C96.1909 199.998 94.8328 198.925 93.5819 197.818C91.9736 196.388 90.6513 194.279 89.7221 192.171C89.5688 191.835 89.4284 191.469 89.2857 191.097L89.2854 191.097C88.8957 190.081 88.4888 189.02 87.7564 188.418C86.72 187.596 85.1117 186.989 83.7179 187.989C82.2168 189.097 81.1446 193.028 81.645 195.888C82.1811 198.961 83.1103 201.32 84.5756 203.429C87.4705 207.539 91.795 210.362 96.0837 213.043C96.2409 213.141 96.3983 213.24 96.5557 213.339C100.835 216.028 105.152 218.739 107.806 223.014C109.533 225.771 110.149 229.021 110.859 232.766C110.913 233.05 110.967 233.338 111.023 233.628C111.148 234.555 111.281 235.49 111.415 236.426L111.416 236.434L111.417 236.442C111.551 237.377 111.684 238.313 111.809 239.24C112.738 243.528 113.703 247.567 116.205 250.247C115.597 251.891 114.99 253.571 114.418 255.215C109.629 252.963 106.269 248.746 104.876 243.099C104.65 242.237 104.577 241.316 104.502 240.363C104.447 239.657 104.39 238.933 104.268 238.203L104.268 238.202C104.232 237.523 104.197 236.845 104.197 236.166C104.125 235.201 104.089 234.272 104.054 233.307C104.018 232.86 103.973 232.413 103.928 231.967C103.884 231.52 103.839 231.073 103.803 230.626C103.41 228.696 103.053 226.981 102.374 225.408C100.265 220.619 95.5833 217.903 90.7585 215.794C90.0029 215.464 89.2239 215.157 88.4422 214.849L88.4407 214.848C86.8564 214.223 85.2606 213.594 83.8251 212.757L83.7062 212.686C82.071 211.712 80.5381 210.799 79.1075 209.647C76.5522 207.587 75.4237 204.215 74.2785 200.793C73.854 199.525 73.4272 198.249 72.9246 197.031C71.1733 192.743 68.4571 189.383 64.7402 187.06C63.6323 186.345 61.8811 185.237 60.4515 184.951C60.3085 184.487 60.1299 183.986 59.9512 183.522C62.5318 183.744 64.0136 185.043 65.484 186.332C65.9073 186.703 66.33 187.074 66.7774 187.417L66.7881 187.426C67.8594 188.283 69.3219 189.453 71.4235 189.026C73.1747 188.668 74.2112 187.739 74.5328 185.916C74.6787 185.041 74.3363 184.213 74.0136 183.433C73.5458 182.302 73.1193 181.272 74.2827 180.341C75.2785 179.554 76.7096 179.276 78.1675 178.994C78.9594 178.841 79.7591 178.686 80.5013 178.447C82.7886 177.732 84.1467 176.088 84.6113 173.515C85.0402 171.263 83.7536 169.012 82.9316 167.796C81.0374 164.902 78.4642 162.436 75.7837 160.291C74.6043 159.29 73.4249 158.29 72.2455 157.253C69.6008 155.145 67.0275 152.25 65.2406 149.283C64.2485 147.625 63.3969 145.883 62.5498 144.149C61.2609 141.512 59.9825 138.896 58.2357 136.632C54.9119 132.343 49.8369 130.163 43.9399 128.412C42.5818 127.983 41.045 127.554 39.5797 127.304L20.2804 74.1235ZM87.3633 78.9126C89.0788 78.8769 89.5434 79.9848 88.6499 81.1284C88.2385 81.628 87.6579 81.9826 87.087 82.3313C86.9636 82.4067 86.8407 82.4818 86.72 82.558C86.6217 82.6195 86.5229 82.6809 86.4238 82.7425L86.423 82.743C85.0815 83.5771 83.692 84.4411 82.8601 85.7388C82.5027 86.3106 82.2526 86.954 82.0739 87.7045C82.0309 87.8978 82.0073 88.1137 81.9837 88.3299C81.9287 88.8331 81.8735 89.3379 81.5735 89.5629C80.9659 87.8474 80.3941 86.132 79.8223 84.4165V84.3807C81.4534 84.1129 82.6534 82.7837 83.7611 81.5568C84.2795 80.9825 84.7777 80.4307 85.2904 80.0205L85.3273 79.9903C85.7104 79.6767 86.128 79.3348 86.6127 79.127L87.3633 78.9126ZM114.704 84.8096C115.812 84.8096 116.455 85.5601 116.92 86.1677C116.961 86.2194 117.002 86.2713 117.043 86.3232L117.122 86.4236C117.879 87.383 118.657 88.3706 119.707 89.0268C118.778 91.7788 117.84 94.5307 116.902 97.2826C115.964 100.035 115.026 102.787 114.096 105.538C113.632 105.146 113.168 104.788 112.703 104.431L112.702 104.431L112.637 104.383C111.084 103.254 109.474 102.083 108.592 100.32C108.092 99.3198 107.985 97.6758 108.628 96.7466C108.978 96.2218 109.568 95.8683 110.095 95.5519L110.129 95.5314C111.38 94.7094 112.703 93.8159 113.274 92.3149C113.525 91.743 113.81 90.7066 113.667 89.8131C113.453 88.2763 113.346 86.132 114.096 85.167C114.203 85.0601 114.323 85.0044 114.448 84.9462C114.532 84.9072 114.618 84.8671 114.704 84.8096ZM51.4094 91.6716C53.224 91.6397 54.4714 92.5436 55.5811 93.3477C55.7172 93.4463 55.8513 93.5435 55.9841 93.6372C57.5566 94.7094 58.9505 95.5672 61.202 96.0318C62.0955 96.2105 63.4894 96.2819 64.3471 95.996C65.2763 98.5693 66.2145 101.134 67.1526 103.698C68.0908 106.262 69.029 108.826 69.9582 111.4C64.9547 112.115 61.1305 108.826 59.8797 105.538C59.5474 104.697 59.3662 103.759 59.1828 102.81C59.0703 102.228 58.957 101.642 58.8075 101.071C58.3786 99.3198 57.7353 97.8187 56.8418 96.5321C55.8411 95.2098 54.483 94.1018 52.9462 93.3513C52.7946 93.2863 52.6211 93.2243 52.4392 93.1592C51.721 92.9023 50.873 92.599 50.7304 91.886C50.8421 91.8302 50.9538 91.8034 51.0705 91.7754C51.1779 91.7497 51.2896 91.7229 51.4094 91.6716ZM88.364 96.5321C93.2425 96.4831 93.6311 100.621 94.0285 104.852C94.2104 106.789 94.3942 108.745 95.0115 110.328C95.7978 112.4 97.0129 114.116 99.0501 114.938C99.5966 115.159 100.235 115.277 100.871 115.395C101.774 115.561 102.674 115.727 103.303 116.189C104.621 117.142 105.389 119.261 106.072 121.148C106.26 121.666 106.442 122.168 106.627 122.622C106.657 122.712 106.74 122.908 106.842 123.15C107.107 123.774 107.5 124.703 107.449 124.909C106.984 126.339 106.484 127.768 105.983 129.198C105.269 129.091 104.554 128.948 103.875 128.805C101.623 128.233 100.087 127.697 99.2645 125.767C98.9705 125.111 98.7909 124.369 98.6082 123.614C98.5022 123.176 98.395 122.733 98.2638 122.3C97.6205 120.12 96.87 118.333 95.1187 117.261C94.404 116.832 93.2603 116.332 92.0451 116.546C91.8843 116.6 91.7145 116.644 91.5448 116.689C91.375 116.734 91.2053 116.778 91.0444 116.832C90.276 114.634 89.5166 112.427 88.7571 110.22C87.9977 108.013 87.2382 105.806 86.4698 103.609L86.4674 103.601C86.0751 102.46 85.6827 101.319 85.2904 100.142C85.2724 100.102 85.2525 100.06 85.2315 100.017C85.2154 99.9833 85.1986 99.9489 85.1813 99.9135C84.998 99.5379 84.767 99.0647 84.8258 98.7122C84.854 98.679 84.8821 98.6458 84.9101 98.6125C84.9402 98.5768 84.9702 98.5411 85.0001 98.5055C85.5408 97.8621 86.0626 97.2412 86.9344 96.8538C87.154 96.7623 87.3923 96.727 87.6398 96.6904C87.8757 96.6554 88.1198 96.6193 88.364 96.5321ZM156.733 103.037C157.085 103.361 157.334 103.951 157.558 104.483C157.631 104.654 157.7 104.819 157.77 104.967C158.413 106.432 158.878 108.04 159.271 109.863C159.307 110.273 159.333 110.683 159.36 111.093L159.36 111.096L159.36 111.099C159.387 111.509 159.414 111.919 159.45 112.329C159.414 113.651 159.378 114.974 159.342 116.26L159.342 116.262C159.378 117.048 159.414 117.833 159.414 118.619C159.45 118.887 159.476 119.146 159.503 119.405C159.53 119.664 159.557 119.924 159.593 120.192C159.914 121.871 160.486 123.908 161.523 124.873L161.521 124.877L161.52 124.88C161.021 126.307 160.521 127.735 159.986 129.198C159.986 129.189 159.983 129.182 159.979 129.176C159.973 129.168 159.964 129.163 159.953 129.156C159.942 129.149 159.928 129.14 159.914 129.126C159.803 128.904 159.595 128.632 159.381 128.353C159.183 128.095 158.979 127.83 158.842 127.59C158.27 126.589 157.877 125.338 157.555 124.087C157.139 122.497 156.993 120.685 156.847 118.871C156.718 117.261 156.588 115.649 156.269 114.187C156.237 114.044 156.205 113.873 156.169 113.684C155.919 112.361 155.5 110.153 154.124 110.435C153.374 110.613 152.766 111.435 152.373 111.972C151.051 113.687 150.193 115.545 149.586 118.011C149.049 120.192 148.978 122.765 148.978 125.481V129.377C148.958 129.724 148.937 130.074 148.917 130.426L148.871 131.217C148.835 131.834 148.799 132.45 148.764 133.058C148.192 136.525 147.977 141.957 148.907 145.066C149.443 146.817 150.05 148.39 150.979 149.712C151.251 150.008 151.505 150.322 151.754 150.628L151.755 150.629C151.867 150.766 151.977 150.902 152.087 151.035C151.23 153.429 150.372 155.815 149.514 158.2C148.656 160.586 147.799 162.972 146.941 165.366C146.923 165.366 146.914 165.357 146.905 165.348C146.896 165.339 146.887 165.33 146.869 165.33C146.798 165.081 146.718 164.831 146.638 164.582L146.637 164.58C146.557 164.33 146.476 164.08 146.405 163.829C146.119 162.757 146.012 160.97 146.226 159.684C146.298 159.148 146.36 158.611 146.423 158.075C146.485 157.539 146.548 157.003 146.619 156.467C147.048 154.358 147.513 151.356 147.012 148.926C146.655 147.032 146.083 145.495 145.118 144.208C144.873 143.893 144.601 143.588 144.327 143.279C143.482 142.331 142.609 141.349 142.366 139.92C142.177 138.88 142.794 137.756 143.188 137.04C143.24 136.944 143.289 136.855 143.331 136.775C144.296 135.023 145.118 133.308 145.654 131.092C146.232 128.747 146.26 125.893 146.289 123.049C146.32 119.911 146.351 116.784 147.12 114.366C148.406 110.292 151.408 107.218 154.41 104.895C154.803 104.591 155.188 104.279 155.572 103.966C155.956 103.653 156.34 103.34 156.733 103.037ZM154.069 115.819C154.09 116.013 154.107 116.182 154.124 116.296L154.768 122.515C155.268 125.124 155.804 127.375 156.984 129.269C157.267 129.722 157.617 130.153 157.964 130.579C158.055 130.691 158.145 130.802 158.234 130.913C158.377 131.039 158.52 131.173 158.663 131.307C158.806 131.441 158.949 131.575 159.092 131.7C158.092 134.469 157.082 137.248 156.072 140.027L156.07 140.033C155.061 142.81 154.052 145.586 153.052 148.354C153.052 148.319 153.017 148.318 153.017 148.318C152.896 148.026 152.718 147.75 152.537 147.471C152.343 147.17 152.146 146.865 152.016 146.532C151.587 145.602 151.301 144.53 151.051 143.422C150.586 141.421 150.586 138.133 150.944 135.988C150.978 135.563 151.02 135.138 151.062 134.71L151.062 134.708C151.109 134.236 151.156 133.759 151.194 133.272C151.23 132.629 151.274 131.977 151.319 131.324C151.364 130.672 151.408 130.02 151.444 129.377V127.447C151.444 126.978 151.421 126.474 151.398 125.963C151.349 124.915 151.3 123.832 151.444 122.944C151.462 122.658 151.48 122.363 151.498 122.068C151.515 121.773 151.533 121.478 151.551 121.192C151.571 121.056 151.591 120.92 151.611 120.786C151.87 119.025 152.097 117.476 152.695 116.082C152.892 115.666 153.115 115.278 153.333 114.899L153.333 114.899C153.471 114.659 153.607 114.423 153.731 114.187C153.92 114.376 154.007 115.218 154.069 115.819ZM92.331 118.976C94.9698 118.976 95.6796 121.803 96.3173 124.343C96.5519 125.278 96.7768 126.173 97.0844 126.875C98.514 130.163 101.302 130.77 105.161 131.557V131.592C104.257 134.197 103.366 136.802 102.472 139.414L102.469 139.425L102.465 139.437C101.877 141.154 101.288 142.875 100.694 144.602H100.658C99.193 140.349 97.7277 136.105 96.2624 131.861C94.7971 127.616 93.3317 123.372 91.8664 119.119C91.8896 119.114 91.9137 119.108 91.9385 119.102C92.0664 119.071 92.2113 119.036 92.331 118.976ZM40.5804 130.056C41.7383 130.194 42.9386 130.587 44.0667 130.956C44.4011 131.065 44.7291 131.173 45.0478 131.271C49.5867 132.7 53.661 134.738 56.3057 138.097C57.981 140.245 59.2046 142.793 60.434 145.353C61.2503 147.053 62.0692 148.758 63.0247 150.356C65.0976 153.787 67.9568 157.003 70.9946 159.433C71.638 159.987 72.2813 160.532 72.9246 161.077C73.5679 161.622 74.2112 162.168 74.8545 162.721C76.9274 164.401 78.9645 166.367 80.5013 168.583C81.3591 169.762 82.467 171.299 82.1453 173.443C81.802 175.76 79.8561 176.131 77.7368 176.535C77.2083 176.636 76.669 176.739 76.1411 176.874C74.8187 177.196 73.7108 177.696 72.7816 178.411C71.8167 179.162 70.7445 180.627 71.1376 182.45C71.1865 182.694 71.3184 183.049 71.4666 183.447C71.86 184.503 72.3682 185.868 71.7452 186.309C70.8874 186.953 69.565 186.452 68.9217 186.024C68.4784 185.749 68.0974 185.375 67.7199 185.004C67.4582 184.747 67.1983 184.492 66.9203 184.272C65.7409 183.307 64.5973 182.378 63.0247 181.771C62.2897 181.483 61.4975 181.338 60.6481 181.183L60.6439 181.182C60.5448 181.164 60.4449 181.146 60.3443 181.127C60.1298 181.109 59.9065 181.1 59.6831 181.092C59.4597 181.083 59.2364 181.074 59.0219 181.056C58.7003 180.055 58.3429 179.09 57.9855 178.125V178.089C58.3039 178.153 58.6224 178.231 58.9472 178.31C59.3514 178.409 59.7654 178.51 60.2013 178.59C62.5244 178.983 64.6687 178.089 65.8839 177.196C66.293 176.869 66.6241 176.422 66.9585 175.97C67.5005 175.238 68.0513 174.495 68.9575 174.23C69.6492 174.037 70.372 174.135 71.098 174.232C71.7223 174.316 72.3489 174.4 72.9603 174.301C73.1813 174.259 73.396 174.226 73.6037 174.194C74.1014 174.118 74.5583 174.049 74.9617 173.872C76.5342 173.229 77.8566 171.513 77.1418 169.19C76.4985 167.117 74.926 165.581 73.3892 164.365C72.1383 163.401 70.8517 162.436 69.4221 161.614C68.5815 161.111 67.7238 160.632 66.8682 160.154C64.9229 159.068 62.9861 157.986 61.2735 156.646C59.7367 155.466 58.3071 153.822 57.4494 151.928C57.0338 150.984 56.6581 149.99 56.2817 148.995C55.59 147.166 54.8959 145.33 53.9469 143.78C52.0528 140.742 49.2293 138.347 45.7984 136.846C45.2532 136.632 44.6974 136.471 44.1252 136.305C43.6472 136.166 43.1576 136.024 42.6533 135.845C42.3138 134.88 41.9653 133.916 41.6168 132.951C41.2684 131.986 40.9199 131.021 40.5804 130.056ZM122.173 133.987C122.281 134.273 122.388 134.595 122.495 134.916C122.78 135.803 122.925 136.773 123.078 137.803C123.098 137.936 123.118 138.07 123.138 138.204C123.156 138.489 123.165 138.784 123.174 139.078L123.174 139.08C123.183 139.375 123.192 139.67 123.21 139.955C123.21 140.652 123.219 141.358 123.228 142.064C123.237 142.77 123.246 143.476 123.246 144.173C123.263 144.53 123.281 144.879 123.299 145.227C123.309 145.413 123.318 145.599 123.328 145.787C123.336 145.95 123.345 146.115 123.353 146.281C123.421 146.692 123.479 147.092 123.536 147.483C123.717 148.724 123.883 149.867 124.318 150.927C124.957 152.543 125.833 153.912 126.707 155.279C127.495 156.511 128.282 157.741 128.892 159.148C129.319 160.194 129.581 161.393 129.844 162.6C130.021 163.414 130.199 164.232 130.429 165.009C130.93 166.546 131.68 167.868 132.538 169.047C133.431 170.334 134.611 171.656 135.826 172.657C136.04 172.854 136.246 173.05 136.451 173.247C136.657 173.443 136.862 173.64 137.077 173.836C138.006 174.765 138.97 175.694 139.935 176.623L139.936 176.624C140.651 177.339 141.365 178.018 142.08 178.697C142.027 178.842 141.973 178.985 141.92 179.128C141.725 179.652 141.534 180.164 141.365 180.698C141.33 180.663 141.33 180.663 141.294 180.663C141.078 180.169 140.49 179.729 140.034 179.388C139.962 179.334 139.893 179.282 139.829 179.233C137.935 177.804 136.291 177.089 133.396 176.624C132.788 176.588 132.18 176.553 131.537 176.517C131.269 176.499 130.992 176.49 130.715 176.481C130.438 176.472 130.161 176.463 129.893 176.445C129.648 176.407 129.412 176.373 129.183 176.341C127.909 176.158 126.876 176.01 125.998 175.373C124.389 174.23 124.211 171.156 124.675 168.511C124.818 167.439 124.925 165.974 124.747 164.83C123.782 159.576 120.029 155.574 114.632 154.787V154.752C116.162 150.513 117.704 146.275 119.244 142.045C120.223 139.355 121.201 136.668 122.173 133.987ZM43.7255 138.705C44.7977 138.919 45.8341 139.562 46.6918 140.098C49.4795 141.814 51.6239 144.066 52.982 147.175C53.3518 148.038 53.6791 148.93 54.0049 149.819C54.6238 151.507 55.2374 153.18 56.127 154.609C58.3455 158.152 61.9574 160.186 65.6148 162.246C66.4944 162.741 67.3766 163.238 68.2427 163.758C70.3871 165.009 72.7458 166.51 74.1039 168.583C74.5328 169.19 75.3906 170.691 74.4613 171.406C73.7391 171.919 72.4104 171.856 71.0611 171.792C69.8732 171.736 68.6694 171.679 67.8495 172.014C66.7416 172.478 66.0269 173.229 65.3478 174.122C65.3348 174.14 65.3219 174.158 65.3089 174.176C65.2767 174.221 65.2443 174.267 65.2117 174.313C64.968 174.658 64.7082 175.025 64.3471 175.266C63.811 175.659 63.2392 175.874 62.4529 176.052C61.9526 176.16 61.1306 176.267 60.4873 176.16C59.9154 176.052 59.3436 175.945 58.879 175.766C58.7844 175.741 58.6731 175.714 58.552 175.684C57.9868 175.544 57.2076 175.352 56.9133 175.087C54.7153 169.029 52.5174 162.963 50.3194 156.896L50.2973 156.835C48.1067 150.788 45.9161 144.742 43.7255 138.705ZM113.775 157.182C115.276 157.146 116.598 157.789 117.563 158.361C120.136 159.898 121.78 162.007 122.352 165.545C122.352 166.045 122.352 166.51 122.316 167.01C122.245 167.939 122.173 168.869 122.066 169.762C121.709 171.907 122.209 174.265 122.995 175.552C123.925 177.16 125.319 178.054 127.356 178.59C128.328 178.833 129.448 178.851 130.586 178.869C131.623 178.886 132.675 178.903 133.646 179.09C135.218 179.412 136.433 179.912 137.577 180.627C138.435 181.199 139.15 181.842 139.757 182.628C139.79 182.669 139.842 182.723 139.901 182.786C140.101 182.996 140.392 183.301 140.365 183.522C139.364 186.238 138.363 188.99 137.398 191.706C137.363 191.67 137.363 191.67 137.327 191.67C137.07 191.055 136.593 190.549 136.132 190.062C135.951 189.871 135.773 189.682 135.611 189.49C134.039 187.525 131.358 186.059 128.642 185.237C127.654 184.949 126.645 184.784 125.667 184.625C123.5 184.271 121.489 183.944 120.208 182.342C118.599 180.377 117.885 177.982 117.241 175.016C117.062 174.188 116.925 173.355 116.79 172.531C116.575 171.22 116.364 169.933 115.991 168.726C115.347 166.617 114.454 164.937 113.239 163.436C113.03 163.165 112.76 162.955 112.487 162.741C112.292 162.589 112.095 162.435 111.916 162.257C112.559 160.543 113.166 158.865 113.773 157.188L113.773 157.186L113.775 157.182ZM112.149 166.054C112.178 166.099 112.208 166.144 112.238 166.188C113.274 167.868 113.81 169.977 114.311 172.228C114.335 172.381 114.36 172.535 114.385 172.689L114.385 172.692C114.54 173.654 114.698 174.639 114.883 175.623C115.562 178.697 116.312 181.342 117.92 183.415C119.064 184.916 120.637 185.988 122.71 186.595C123.623 186.873 124.634 187.024 125.64 187.174C126.836 187.352 128.026 187.529 129.035 187.918C132.431 189.24 134.718 191.599 136.255 194.744C135.683 196.388 135.111 197.996 134.504 199.605C134.504 199.569 134.468 199.533 134.432 199.533C132.552 198.035 130.671 196.56 128.771 195.07L128.767 195.067C128.357 194.746 127.946 194.424 127.534 194.101C127.484 194.061 127.433 194.02 127.38 193.977C126.525 193.294 125.292 192.307 123.71 192.778C122.066 193.279 121.137 195.244 121.852 197.353C122.303 198.609 123.102 199.575 123.896 200.535C124.865 201.705 125.826 202.867 126.141 204.537C126.361 205.67 126.027 206.859 125.773 207.761L125.772 207.764C125.738 207.885 125.705 208.001 125.676 208.111C125.439 208.882 125.3 209.653 125.157 210.444C125.128 210.607 125.099 210.77 125.068 210.934C124.425 214.329 125.998 217.832 127.213 219.762C126.743 221.079 126.268 222.396 125.791 223.716C125.142 225.511 124.492 227.312 123.853 229.125C123.457 228.795 123.183 228.313 122.918 227.847L122.877 227.775L122.852 227.731C121.101 224.801 121.316 219.904 122.03 215.937C122.066 215.491 122.111 215.044 122.156 214.597C122.2 214.15 122.245 213.704 122.281 213.257C122.495 212.006 122.316 210.112 122.066 209.04C121.602 206.752 120.887 205.037 119.707 203.5C118.888 202.488 117.761 201.688 116.653 200.901L116.652 200.9C116.117 200.52 115.586 200.143 115.097 199.747C113.489 198.461 112.56 196.352 111.952 194.065C111.166 191.027 111.559 186.524 112.131 183.522C112.202 182.843 112.283 182.164 112.363 181.485C112.443 180.806 112.524 180.127 112.595 179.448C112.631 178.804 112.667 178.125 112.702 177.446V175.373C112.631 174.658 112.595 173.944 112.56 173.229C112.095 170.799 111.487 168.69 110.129 167.189C110.25 166.842 110.377 166.494 110.506 166.144L110.506 166.143C110.681 165.665 110.858 165.182 111.023 164.687C111.482 165.048 111.82 165.558 112.149 166.054ZM64.7789 190.073C64.8369 190.118 64.8935 190.162 64.9486 190.205C65.0122 190.254 65.0739 190.302 65.1334 190.348C67.3849 192.099 69.1719 194.494 70.3871 197.281C70.9943 198.686 71.4853 200.149 71.9722 201.6C72.8608 204.247 73.7365 206.857 75.2834 209.004C77.6064 212.256 81.2876 214.401 85.1832 216.08C85.9503 216.417 86.7311 216.745 87.5144 217.074C91.8039 218.877 96.1707 220.712 98.7999 224.157C100.194 226.016 100.873 228.232 101.373 231.019C101.528 231.776 101.547 232.555 101.565 233.348C101.581 234.015 101.597 234.694 101.695 235.38C101.766 236.416 101.802 237.417 101.838 238.418C101.909 239.061 101.945 239.704 101.981 240.383C102.077 240.912 102.153 241.437 102.228 241.954C102.375 242.973 102.518 243.961 102.803 244.886C104.161 249.211 106.555 252.713 109.772 255.179C110.522 255.787 111.344 256.323 112.202 256.823C112.46 256.974 112.731 257.111 113.007 257.251C113.19 257.344 113.375 257.438 113.56 257.538C112.56 260.308 111.559 263.087 110.558 265.865C109.557 268.644 108.557 271.423 107.556 274.193C103.732 274.836 101.445 272.191 100.122 269.904C98.9178 267.859 98.5695 265.463 98.1827 262.802C98.076 262.067 97.9663 261.313 97.8349 260.54C97.7992 259.986 97.7545 259.432 97.7098 258.878C97.6651 258.324 97.6205 257.77 97.5847 257.216C97.5133 255.572 97.4418 253.893 97.406 252.249C97.3703 251.677 97.3703 251.141 97.3703 250.569C97.2988 249.104 97.2273 247.603 97.1559 246.101C97.1559 245.883 97.1466 245.664 97.1375 245.45L97.1374 245.449C97.1287 245.244 97.1201 245.043 97.1201 244.851C97.0666 244.155 97.0042 243.469 96.9418 242.782L96.9414 242.778C96.8789 242.09 96.8163 241.402 96.7627 240.705C96.584 239.668 96.4411 238.632 96.2981 237.56L96.2855 237.504C95.6826 234.844 95.1118 232.326 94.118 230.019C91.0444 222.728 85.612 217.796 78.3569 214.651C75.9981 213.614 73.0318 212.435 70.2441 211.935C67.3492 204 64.4543 196.031 61.5952 188.061C62.6022 188.375 63.8587 189.355 64.7789 190.073ZM85.2904 189.919C86.2754 189.919 86.7907 191.328 87.16 192.338C87.2462 192.574 87.3246 192.788 87.399 192.957C88.5427 195.566 90.2939 198.354 92.331 199.998C94.5111 201.749 96.9415 203.071 99.7649 204.215C100.423 204.475 101.091 204.725 101.76 204.976L101.761 204.976C105.413 206.345 109.076 207.718 111.13 210.648C112.023 211.899 112.488 213.257 112.845 215.08C112.957 215.695 112.952 216.358 112.948 217.034C112.943 217.656 112.939 218.288 113.024 218.904L113.024 218.905C113.06 219.548 113.096 220.191 113.096 220.834C113.183 221.355 113.244 221.859 113.303 222.348C113.414 223.265 113.518 224.127 113.775 224.944C114.74 228.089 116.527 230.877 118.85 232.699C119.153 232.932 119.466 233.164 119.779 233.396C120.092 233.628 120.404 233.861 120.708 234.093C120.886 234.2 121.074 234.307 121.261 234.414L121.262 234.415C121.45 234.522 121.637 234.629 121.816 234.736C121.048 236.863 120.279 238.98 119.511 241.098C118.742 243.216 117.974 245.333 117.206 247.46C117.17 247.46 117.17 247.46 117.17 247.424C117.033 247.052 116.778 246.626 116.522 246.2C116.311 245.848 116.1 245.495 115.955 245.172C115.403 243.875 115.028 242.429 114.643 240.944C114.604 240.793 114.565 240.642 114.525 240.49C114.078 238.703 113.846 236.782 113.614 234.861C113.382 232.941 113.149 231.019 112.702 229.232C111.845 225.73 110.773 222.799 108.95 220.333C105.862 216.227 101.355 213.419 96.928 210.661C96.5384 210.418 96.1494 210.176 95.762 209.933C94.2967 209.004 92.9029 208.075 91.5448 207.038C90.973 206.538 90.4011 206.038 89.7936 205.537L89.7926 205.536C89.2568 205.036 88.721 204.536 88.1853 204C86.2554 201.606 84.79 199.533 84.111 195.78C83.7178 193.815 84.2897 190.741 85.2904 189.919ZM124.354 195.137C125.124 195.11 125.916 195.824 126.517 196.366C126.696 196.528 126.859 196.674 126.998 196.781L133.646 202.035C132.755 204.477 131.872 206.919 130.99 209.361L130.983 209.379L130.977 209.397C130.094 211.839 129.212 214.281 128.321 216.724C128.321 216.706 128.321 216.697 128.316 216.692C128.312 216.688 128.303 216.688 128.285 216.688L127.856 215.509C127.499 214.365 127.213 212.614 127.499 211.148C127.608 210.582 127.767 209.981 127.931 209.357C128.411 207.538 128.943 205.523 128.464 203.607C128.013 201.857 127.021 200.631 126.036 199.416C125.614 198.895 125.194 198.375 124.818 197.818C124.461 197.281 123.746 196.066 124.282 195.173C124.282 195.173 124.318 195.137 124.354 195.137ZM71.2806 214.758C72.174 214.83 73.4249 215.33 74.2112 215.652C74.6422 215.822 75.0715 215.986 75.4967 216.148C76.9401 216.697 78.338 217.229 79.6078 217.975C79.7097 218.035 79.8111 218.094 79.9122 218.154C80.0223 218.218 80.1321 218.283 80.2414 218.347C81.4047 219.029 82.5205 219.684 83.6106 220.441C88.0423 223.621 91.0802 228.053 92.9029 233.914C93.3034 235.223 93.5643 236.611 93.8345 238.049L93.8349 238.051C93.9263 238.537 94.0187 239.029 94.118 239.525C94.1895 240.026 94.252 240.535 94.3146 241.044L94.315 241.048C94.3774 241.556 94.4398 242.064 94.5112 242.563C94.5826 244.243 94.6898 245.923 94.7971 247.603L94.7984 247.628L94.7984 247.629C94.8337 248.335 94.869 249.042 94.9043 249.783C94.9043 250.64 94.9043 251.534 94.94 252.427C94.9936 253.535 95.0383 254.643 95.083 255.751C95.1276 256.859 95.1723 257.967 95.2259 259.075L95.6548 263.042C96.4411 267.259 97.0486 270.118 99.193 272.978C100.73 274.943 103.089 276.766 106.591 276.73V276.802C104.447 282.699 102.302 288.596 100.194 294.493H100.158V294.457C98.2281 289.15 96.3071 283.842 94.3861 278.535C92.4651 273.228 90.5441 267.92 88.6142 262.613C89.4719 262.291 90.1509 261.97 90.7943 261.505C92.0094 260.54 92.9744 258.432 91.9022 256.609C91.4421 255.842 90.7558 255.322 90.075 254.806C89.4865 254.36 88.902 253.917 88.4712 253.321C88.0066 252.713 87.7564 251.891 87.5777 250.998C87.3275 249.568 87.6492 247.96 87.9351 246.852C88.0602 246.244 88.1853 245.628 88.3104 245.011C88.4355 244.395 88.5605 243.778 88.6856 243.171C89.3647 239.776 88.1495 236.13 86.9344 234.057C84.933 230.662 82.1811 228.268 79.036 226.052C77.9638 225.373 76.8559 224.694 75.7837 224.05C75.5335 223.907 75.2923 223.764 75.051 223.621C74.8098 223.478 74.5686 223.335 74.3184 223.193C73.282 220.405 72.2813 217.581 71.2806 214.758ZM75.6408 226.802C79.5721 229.125 83.0388 231.841 85.1474 236.023C85.7907 237.274 86.0767 238.56 86.3626 240.24C86.3626 240.441 86.3719 240.633 86.3811 240.821C86.3898 240.999 86.3983 241.174 86.3983 241.348L86.2911 242.635L85.6478 245.851C85.2904 247.281 84.8258 249.211 85.1117 251.034C85.4691 252.856 85.9694 254.536 87.1488 255.537C87.3322 255.685 87.5688 255.855 87.8265 256.04C88.6237 256.611 89.6219 257.327 89.865 258.003C90.3634 259.32 88.6284 259.999 87.8022 260.322L87.7922 260.326C85.7765 254.743 83.7519 249.168 81.7273 243.594L81.7165 243.564L81.7056 243.534C79.681 237.96 77.6564 232.385 75.6408 226.802Z" fill="#203C90"/>
</svg>
